<svg xmlns="http://www.w3.org/2000/svg" viewBox="0 0 199.8 126.4" enable-background="new 0 0 199.8 126.4"><path fill="#003473" d="M0 0h199.8v126.4H0z"/><path fill="#009DDD" d="M99.9 103.6c11-10 17.9-24.4 17.9-40.5 0-16-6.9-30.5-17.9-40.5-9.7-8.7-22.5-14-36.6-14C33.1 8.6 8.7 33 8.7 63.2c0 30.1 24.4 54.6 54.6 54.6 14.1-.1 26.9-5.4 36.6-14.2z"/><path fill="#009DDD" stroke="#009DDD" stroke-width=".195" d="M99.9 103.6c11-10 17.9-24.4 17.9-40.5 0-16-6.9-30.5-17.9-40.5"/><path fill="#ED1B2F" d="M136.5 8.6c-14.1 0-27 5.3-36.6 14.1-2 1.8-3.8 3.7-5.5 5.8h11c1.5 1.8 2.9 3.8 4.2 5.8H90.2C89.1 36.1 88 38 87.1 40h25.6c.9 1.9 1.7 3.8 2.3 5.8H84.8c-.6 1.9-1.2 3.8-1.6 5.8h33.4c.8 3.7 1.2 7.6 1.2 11.6 0 6.1-1 11.9-2.8 17.3H84.8c.7 2 1.4 3.9 2.3 5.8h25.6c-.9 2-2 3.9-3.1 5.8H90.2c1.3 2 2.7 3.9 4.2 5.8h11c-1.7 2.1-3.5 4-5.5 5.8 9.7 8.8 22.5 14.1 36.6 14.1 30.1 0 54.6-24.4 54.6-54.6 0-30.2-24.4-54.6-54.6-54.6zM183.8 93.6c0-1 .8-1.8 1.8-1.8s1.8.8 1.8 1.8-.8 1.8-1.8 1.8c-1-.1-1.8-.9-1.8-1.8zm1.8 1.3c.7 0 1.3-.6 1.3-1.3 0-.7-.6-1.3-1.3-1.3-.7 0-1.3.6-1.3 1.3 0 .7.6 1.3 1.3 1.3zm-.2-.6h-.4v-1.5h.7c.1 0 .3 0 .4.1.1.1.2.2.2.4s-.1.3-.3.4l.3.7h-.4l-.2-.6h-.3v.5zm0-.8h.2c.1 0 .2 0 .2 0 .1 0 .1-.1.1-.2s0-.1-.1-.2c-.1 0-.2 0-.2 0h-.2v.4z"/><g fill="#003473"><path d="M54.7 78.3h-6.8l4-21.2-9.3 21.2h-5.7l-1.1-21.1-4.5 21.1H25l5.3-27.6h10.8l.1 17.1 7.5-17.1h11.4zM130.6 78.1c-1.9.5-3.3.7-4.9.7-3.5 0-5.4-1.7-5.4-4.9 0-.6.1-1.3.2-2l.4-2.2.3-1.8 3.1-17.2h6.8l-1 5.2h3.5l-.9 5.5h-3.5l-1.8 9.4c-.1.4-.1.7-.1.9 0 1.2.7 1.7 2.3 1.7.8 0 1.4-.1 1.8-.2l-.8 4.9zM103.7 62.9c0 2.8 1.6 4.8 5.2 6.3 2.8 1.1 3.2 1.5 3.2 2.5 0 1.4-1.2 2-3.9 2-2.1 0-4-.3-6.2-.9l-.9 5.2.3.1 1.3.2c.4.1 1 .1 1.8.2 1.6.1 2.9.2 3.8.2 7.3 0 10.6-2.4 10.6-7.5 0-3.1-1.4-4.9-4.8-6.3-2.9-1.1-3.2-1.4-3.2-2.4 0-1.2 1.1-1.8 3.4-1.8 1.3 0 3.2.1 4.9.3l1-5.2c-1.8-.2-4.5-.4-6-.4-7.9-.1-10.6 3.4-10.5 7.5zM76.7 78.3h-5.6l.1-2.3c-1.7 1.8-4 2.7-7.1 2.7-3.7 0-6.2-2.5-6.2-6.1 0-5.5 4.4-8.7 11.9-8.7.8 0 1.8.1 2.8.2.2-.7.3-1.1.3-1.5 0-1.5-1.2-2-4.4-2-1.9 0-4.1.2-5.6.6l-.9.2-.6.1.9-5.1c3.4-.9 5.6-1.2 8.1-1.2 5.8 0 8.9 2.3 8.9 6.6 0 1.1-.1 2-.6 4.5l-1.4 8-.2 1.4-.2 1.1-.1.8-.1.7zm-4.6-10c-.7-.1-1-.1-1.5-.1-3.9 0-5.8 1.2-5.8 3.4 0 1.4 1 2.3 2.4 2.3 2.8 0 4.8-2.3 4.9-5.6zM99.1 77.8c-2.3.6-4.6.9-7 .9-7.6 0-11.6-3.5-11.6-10.1 0-7.7 5-13.4 11.9-13.4 5.6 0 9.2 3.2 9.2 8.2 0 1.7-.2 3.3-.8 5.6H87.2c-.1.3-.1.5-.1.7 0 2.6 2 3.9 6 3.9 2.4 0 4.6-.4 7.1-1.4l-1.1 5.6zm-3.3-13.3c0-.5.1-.9.1-1.1 0-1.8-1.2-2.9-3.2-2.9-2.2 0-3.7 1.4-4.3 4h7.4zM171.6 68.1c-1 7.5-6.2 10.8-13.2 10.8-7.7 0-10.8-4.7-10.8-10.4 0-8 5.3-13.4 13.4-13.4 7 0 10.8 4.4 10.8 10.2-.1 1.4-.1 1.5-.2 2.8zm-6.9-2.7c0-2.4-1-4.6-3.7-4.6-3.5 0-5.6 4.1-5.6 7.7 0 3.1 1.5 5.1 3.9 5.1 1.5 0 4.6-2 5.2-5.5.1-.8.2-1.7.2-2.7z"/></g><path fill="#fff" d="M172.3 75c0-1 .8-1.8 1.8-1.8s1.8.8 1.8 1.8-.8 1.8-1.8 1.8c-1-.1-1.8-.8-1.8-1.8zm1.8 1.3c.7 0 1.3-.6 1.3-1.3 0-.7-.6-1.3-1.3-1.3-.7 0-1.3.6-1.3 1.3-.1.7.5 1.3 1.3 1.3zm-.3-.5h-.4v-1.5h.7c.1 0 .3 0 .4.1.1.1.2.2.2.4s-.1.3-.3.4l.3.7h-.4l-.2-.6h-.3v.5zm0-.9h.2c.1 0 .2 0 .2 0 .1 0 .1-.1.1-.2s0-.1-.1-.2c-.1 0-.2 0-.2 0h-.2v.4zM56.4 76.7h-6.7l4-21.2-9.3 21.2h-6.2l-1.1-21.1L33 76.7h-6.1l5.2-27.6h10.6l.6 17.1 7.5-17.1h11zM132.4 76.5c-1.9.5-3.3.7-4.9.7-3.5 0-5.4-1.7-5.4-4.9 0-.6.1-1.3.2-2l.4-2.2.3-1.8 3.1-17.2h6.8l-1 5.2h3.5l-.9 5.5H131l-1.8 9.4c-.1.4-.1.7-.1.9 0 1.2.7 1.7 2.3 1.7.8 0 1.4-.1 1.8-.2l-.8 4.9z"/><path fill="#003473" d="M149.8 60.7l-.2-.7 1.4-3.5c-.3 0-.4 0-.5-.1-.4-.1-.6-.1-.6-.1-.2 0-.4-.1-.7-.1-2.2 0-3.8 1-5.9 3.7l.7-4h-7l-4.2 22.5h6.8c.9-5.2 1.3-8.1 1.9-10.5.9-4.1 3.9-5.9 6.1-5.5.2 0 .4.1.8.2l.4.2 1-2.1z"/><path fill="#fff" d="M152.2 54.4c-.6-.2-.7-.2-.8-.2-.4-.1-.6-.1-.6-.1-.2 0-.4-.1-.7-.1-2.2 0-3.8 1-5.9 3.7l.6-3.4h-6.2l-4.1 22.5h6.8c2.4-13.8 3.5-16.2 6.7-16.2.2 0 .5 0 .9.1l.8.2 2.5-6.5zM105.4 61.4c0 2.8 1.6 4.8 5.2 6.3 2.8 1.1 3.2 1.5 3.2 2.5 0 1.4-1.2 2-3.9 2-2.1 0-4-.3-6.2-.9l-.9 5.2.3.1 1.3.2c.4.1 1 .1 1.8.2 1.6.1 2.9.2 3.8.2 7.3 0 10.6-2.4 10.6-7.5 0-3.1-1.4-4.9-4.8-6.3-2.9-1.1-3.2-1.4-3.2-2.4 0-1.2 1.1-1.8 3.4-1.8 1.3 0 3.2.1 4.9.3l1-5.2c-1.8-.2-4.5-.4-6-.4-7.8-.2-10.5 3.3-10.5 7.5zM78.5 76.7h-5.6l.1-2.3c-1.7 1.8-4 2.7-7.1 2.7-3.7 0-6.2-2.5-6.2-6.1 0-5.5 4.4-8.7 11.9-8.7.8 0 1.8.1 2.8.2.2-.7.3-1.1.3-1.5 0-1.5-1.2-2-4.4-2-1.9 0-4.1.2-5.6.6l-.9.2-.7.2.9-5.1c3.4-.9 5.6-1.2 8.1-1.2 5.8 0 8.9 2.3 8.9 6.6 0 1.1-.1 2-.6 4.5l-1.4 8-.2 1.4-.2 1.1-.1.8v.6zm-4.9-10c-.7-.1-1-.1-1.5-.1-3.9 0-5.8 1.2-5.8 3.4 0 1.4 1 2.3 2.4 2.3 2.8 0 4.8-2.3 4.9-5.6zM100.8 76.3c-2.3.6-4.6.9-7 .9-7.6 0-11.6-3.5-11.6-10.1 0-7.7 5-13.4 11.9-13.4 5.6 0 9.2 3.2 9.2 8.2 0 1.7-.2 3.3-.8 5.6H89c-.1.3-.1.5-.1.7 0 2.6 2 3.9 6 3.9 2.4 0 4.6-.4 7.1-1.4l-1.2 5.6zm-3.6-13.4c0-.5.1-.9.1-1.1 0-1.8-1.2-2.9-3.2-2.9-2.2 0-3.7 1.4-4.3 4h7.4zM173.3 66.5c-1 7.5-6.2 10.8-13.2 10.8-7.7 0-10.8-4.7-10.8-10.4 0-8 5.3-13.4 13.4-13.4 7 0 10.8 4.4 10.8 10.2 0 1.4 0 1.5-.2 2.8zm-7-2.8c0-2.4-1-4.6-3.7-4.6-3.5 0-5.6 4.1-5.6 7.7 0 3.1 1.5 5.1 3.9 5.1 1.5 0 4.6-2 5.2-5.5.1-.9.2-1.8.2-2.7z"/></svg>