<svg xmlns="http://www.w3.org/2000/svg" viewBox="0 0 231.2 146.2" enable-background="new 0 0 231.2 146.2"><path fill="#003375" d="M0 0h231.2v146.2H0z"/><circle cx="73.1" cy="73.1" r="63.3" fill="#ED1C24"/><path fill="#FAA61A" d="M158.1 9.8c-16.4 0-31.2 6.2-42.5 16.4-2.3 2.1-4.4 4.3-6.4 6.7H122c1.7 2.1 3.4 4.4 4.8 6.7h-22.4c-1.3 2.2-2.6 4.4-3.6 6.7h29.7c1 2.2 1.9 4.4 2.7 6.7H98.1c-.7 2.2-1.3 4.4-1.8 6.7H135c.9 4.3 1.4 8.8 1.4 13.4 0 7-1.1 13.8-3.3 20.1h-35c.8 2.3 1.7 4.5 2.7 6.7h29.7c-1.1 2.3-2.3 4.5-3.7 6.7h-22.4c1.5 2.3 3.1 4.6 4.8 6.7H122c-2 2.4-4.1 4.6-6.4 6.7 11.2 10.2 26.1 16.4 42.5 16.4 34.9 0 63.3-28.3 63.3-63.3 0-34.9-28.4-63.3-63.3-63.3z"/><path fill="#fff" d="M212.9 108.4c0-1.1.9-2 2-2s2 .9 2 2-.9 2-2 2-2-.9-2-2zm2.1 1.5c.9 0 1.6-.7 1.6-1.6 0-.9-.7-1.6-1.6-1.6-.9 0-1.6.7-1.6 1.6 0 1 .7 1.6 1.6 1.6zm-.3-.6h-.4v-1.8h.8c.2 0 .3 0 .5.1.1.1.2.3.2.5s-.1.4-.3.5l.3.8h-.5l-.3-.7h-.3v.6zm0-1h.2c.1 0 .2 0 .3 0 .1 0 .1-.1.1-.2s0-.1-.1-.2c-.1 0-.2 0-.3 0h-.2v.4z"/><g fill="#003375"><path d="M58.3 80c-.7-.1-1-.1-1.5-.1-3.9 0-5.9 1.3-5.9 4 0 1.6 1 2.7 2.5 2.7 2.8 0 4.8-2.7 4.9-6.6zm5 11.7c-.9 0-5.7 0-5.7 0l.1-2.7c-1.7 2.1-4.1 3.2-7.2 3.2-3.7 0-6.3-2.9-6.3-7.1 0-6.4 4.4-10.1 12.1-10.1.8 0 1.8.1 2.8.2.2-.9.3-1.2.3-1.7 0-1.7-1.2-2.4-4.4-2.4-3.4 0-6.1.8-7.3 1.2.1-.4 1-5.9 1-5.9 3.4-1 5.7-1.4 8.2-1.4 5.9 0 9 2.6 9 7.7 0 1.3-.2 3-.6 5.2-.5 3.7-1.8 11.8-2 13.8zM41.4 91.7h-6.8L38.5 67l-8.8 24.7H25l-.6-24.6-4.1 24.6h-6.4l5.4-32.1h9.8l.6 17.9 6.1-17.9h10.9zM166.6 80c-.7-.1-1-.1-1.5-.1-3.9 0-5.9 1.3-5.9 4 0 1.6 1 2.7 2.5 2.7 2.7 0 4.7-2.7 4.9-6.6zm5 11.7c-.9 0-5.7 0-5.7 0l.1-2.7c-1.7 2.1-4.1 3.2-7.2 3.2-3.7 0-6.3-2.9-6.3-7.1 0-6.4 4.4-10.1 12.1-10.1.8 0 1.8.1 2.8.2.2-.9.3-1.2.3-1.7 0-1.7-1.2-2.4-4.4-2.4-3.4 0-6.1.8-7.3 1.2.1-.4 1-5.9 1-5.9 3.4-1 5.7-1.4 8.2-1.4 5.9 0 9 2.6 9 7.7 0 1.3-.2 3-.6 5.2-.6 3.7-1.9 11.8-2 13.8zM93.9 91.3c-1.9.6-3.3.8-4.9.8-3.5 0-5.4-2-5.4-5.7 0-1.2.5-4.2.9-7 .4-2.4 3-17.8 3-17.8h6.8l-.8 4h4.1l-.9 6.3h-4.1c-.8 5-1.9 11.1-1.9 12 0 1.3.7 1.9 2.4 1.9.8 0 1.4-.1 1.9-.2l-1.1 5.7zM114.8 91.1c-2.3.7-4.6 1.1-7 1.1-7.6 0-11.6-4-11.6-11.6 0-8.9 5.1-15.5 12-15.5 5.6 0 9.2 3.7 9.2 9.4 0 1.9-.2 3.8-.8 6.4H103c-.5 3.8 2 5.4 5.9 5.4 2.4 0 4.6-.5 7.1-1.6l-1.2 6.4zM111 75.6c0-.5.7-4.7-3.2-4.7-2.2 0-3.7 1.7-4.4 4.7h7.6zM67.5 73.8c0 3.3 1.6 5.6 5.2 7.3 2.8 1.3 3.2 1.7 3.2 2.9 0 1.6-1.2 2.4-3.9 2.4-2.1 0-4-.3-6.2-1 0 0-.9 5.8-.9 6 1.6.3 3 .7 7.1.8 7.2 0 10.6-2.8 10.6-8.7 0-3.6-1.4-5.7-4.8-7.3-2.9-1.3-3.2-1.6-3.2-2.8 0-1.4 1.1-2.1 3.4-2.1 1.3 0 3.2.1 4.9.4l1-6.1c-1.8-.3-4.5-.5-6-.5-7.8-.1-10.5 3.9-10.4 8.7zM148.2 65.7c1.9 0 3.7.5 6.1 1.7l1.1-7c-1-.4-4.6-2.7-7.6-2.7-4.6 0-8.5 2.3-11.2 6-4-1.3-5.6 1.3-7.6 4l-1.8.4c.1-.9.3-1.7.2-2.6h-6.3c-.9 8.1-2.4 16.3-3.6 24.3l-.3 1.8h6.9c1.1-7.5 1.8-12.2 2.2-15.5l2.6-1.4c.4-1.4 1.6-1.9 4-1.9-.3 1.7-.5 3.5-.5 5.4 0 8.5 4.6 13.9 12 13.9 1.9 0 3.5-.3 6.1-.9l1.2-7.3c-2.3 1.1-4.1 1.6-5.8 1.6-4 0-6.4-2.9-6.4-7.8 0-7.1 3.6-12 8.7-12zM206.4 59.6l-1.5 9.3c-1.9-2.5-3.9-4.3-6.6-4.3-3.5 0-6.6 2.6-8.7 6.5-2.9-.6-5.8-1.6-5.8-1.6.2-2.2.3-3.5.3-3.9h-6.3c-.9 8.1-2.4 16.3-3.6 24.3l-.3 1.8h6.9c.9-6 1.6-11 2.2-15 2.3-2.1 3.5-4 5.9-3.9-1.1 2.5-1.7 5.5-1.7 8.5 0 6.5 3.3 10.8 8.3 10.8 2.5 0 4.4-.9 6.3-2.9l-.3 2.4h6.5l5.2-32.1h-6.8zm-8.6 26c-2.3 0-3.5-1.7-3.5-5.1 0-5.1 2.2-8.8 5.3-8.8 2.4 0 3.6 1.8 3.6 5.1 0 5.2-2.2 8.8-5.4 8.8z"/></g><path fill="#fff" d="M43.4 89.8h-6.9l4-24.7-8.8 24.7H27l-.6-24.6-4.1 24.6h-6.4l5.3-32.1h9.9l.3 19.8L38 57.7h10.7zM60.3 78.1c-.7-.1-1-.1-1.5-.1-3.9 0-5.9 1.3-5.9 4 0 1.6 1 2.7 2.5 2.7 2.8 0 4.8-2.7 4.9-6.6zm5 11.7c-.9 0-5.7 0-5.7 0l.1-2.7c-1.7 2.1-4.1 3.2-7.2 3.2-3.7 0-6.3-2.9-6.3-7.1 0-6.4 4.4-10.1 12.1-10.1.8 0 1.8.1 2.8.2.2-.9.3-1.2.3-1.7 0-1.7-1.2-2.4-4.4-2.4-3.4 0-6.1.8-7.3 1.2.1-.4 1-5.9 1-5.9 3.4-1 5.7-1.4 8.2-1.4 5.9 0 9 2.7 9 7.7 0 1.3-.2 3-.6 5.2-.5 3.7-1.8 11.8-2 13.8zM157.5 58.5l-1.1 7c-2.5-1.2-4.2-1.7-6.1-1.7-5.1 0-8.7 5-8.7 12 0 4.9 2.4 7.8 6.4 7.8 1.7 0 3.6-.5 5.8-1.6l-1.2 7.3c-2.5.7-4.2.9-6.1.9-7.4 0-12-5.3-12-13.9 0-11.5 6.4-19.5 15.5-19.5 2.9.1 6.5 1.3 7.5 1.7zM168.5 78.1c-.7-.1-1-.1-1.5-.1-3.9 0-5.9 1.3-5.9 4 0 1.6 1 2.7 2.5 2.7 2.8 0 4.8-2.7 4.9-6.6zm5 11.7c-.9 0-5.7 0-5.7 0l.1-2.7c-1.7 2.1-4.1 3.2-7.2 3.2-3.7 0-6.3-2.9-6.3-7.1 0-6.4 4.4-10.1 12.1-10.1.8 0 1.8.1 2.8.2.2-.9.3-1.2.3-1.7 0-1.7-1.2-2.4-4.4-2.4-3.4 0-6.1.8-7.3 1.2.1-.4 1-5.9 1-5.9 3.4-1 5.7-1.4 8.2-1.4 5.9 0 9 2.7 9 7.7 0 1.3-.2 3-.6 5.2-.5 3.7-1.8 11.8-2 13.8zM95.8 89.4c-1.9.6-3.3.8-4.9.8-3.5 0-5.4-2-5.4-5.7 0-1.2.5-4.2.9-7 .4-2.4 3-17.8 3-17.8h6.8l-.8 4h3.5l-.9 6.2h-3.5c-.8 5-1.9 11.1-1.9 12 0 1.3.7 1.9 2.4 1.9.8 0 1.4-.1 1.9-.2l-1.1 5.8zM116.8 89.2c-2.3.7-4.6 1.1-7 1.1-7.6 0-11.6-4-11.6-11.6 0-8.9 5.1-15.5 11.9-15.5 5.6 0 9.2 3.7 9.2 9.5 0 1.9-.3 3.8-.8 6.4h-13.6c-.5 3.8 2 5.4 5.9 5.4 2.4 0 4.6-.5 7.1-1.6l-1.1 6.3zm-3.9-15.5c0-.5.7-4.7-3.2-4.7-2.2 0-3.7 1.7-4.4 4.7h7.6zM69.4 71.9c0 3.3 1.6 5.6 5.2 7.3 2.8 1.3 3.2 1.7 3.2 2.9 0 1.6-1.2 2.4-3.9 2.4-2 0-4-.3-6.2-1 0 0-.9 5.8-.9 6 1.6.3 3 .7 7.1.8 7.3 0 10.6-2.8 10.6-8.7 0-3.6-1.4-5.7-4.8-7.3-2.9-1.3-3.2-1.6-3.2-2.8 0-1.4 1.1-2.1 3.4-2.1 1.3 0 3.2.1 4.9.4l1-6.1c-1.8-.3-4.5-.5-6-.5-7.7-.1-10.4 3.9-10.4 8.7zM209.9 89.8h-6.5l.3-2.4c-1.9 2-3.8 2.9-6.3 2.9-5 0-8.3-4.3-8.3-10.8 0-8.7 5.1-16 11.2-16 2.7 0 4.7 1.1 6.6 3.6l1.5-9.3h6.8l-5.3 32zm-10.1-6.1c3.2 0 5.4-3.6 5.4-8.8 0-3.3-1.3-5.1-3.6-5.1-3.1 0-5.3 3.6-5.3 8.8-.1 3.4 1.1 5.1 3.5 5.1zM179.7 63.7c-.9 8.1-2.4 16.3-3.6 24.3l-.3 1.8h6.9c2.5-16 3-19.1 6.9-18.7.6-3.3 1.8-6.1 2.6-7.6-2.9-.6-4.5 1-6.6 4.1.2-1.3.5-2.6.4-4h-6.3zM123.2 63.7c-.9 8.1-2.4 16.3-3.6 24.3l-.3 1.8h6.9c2.5-16 3-19.1 6.9-18.7.6-3.3 1.8-6.1 2.6-7.6-2.9-.6-4.5 1-6.6 4.1.2-1.3.5-2.6.4-4h-6.3zM212.9 87.7c0-1.1.9-2 2-2s2 .9 2 2-.9 2-2 2c-1.1.1-2-.8-2-2zm2.1 1.6c.9 0 1.6-.7 1.6-1.6 0-.9-.7-1.6-1.6-1.6-.9 0-1.6.7-1.6 1.6 0 .9.7 1.6 1.6 1.6zm-.3-.7h-.4v-1.8h.8c.2 0 .3 0 .5.1.1.1.2.3.2.4 0 .2-.1.4-.3.5l.3.8h-.5l-.3-.7h-.3v.7zm0-1h.2c.1 0 .2 0 .3 0 .1 0 .1-.1.1-.2s0-.1-.1-.2c-.1 0-.2 0-.3 0h-.2v.4z"/></svg>