<svg xmlns="http://www.w3.org/2000/svg" viewBox="0 0 416 264.4" enable-background="new 0 0 416 264.4"><pattern width="69" height="69" x="-212.9" y="429.8" patternUnits="userSpaceOnUse" viewBox="2.1 -70.9 69 69" overflow="visible"><path fill="none" d="M71.1-1.9h-69v-69h69z"/><path fill="#F7BC60" d="M71.1-1.9h-69v-69h69z"/><g fill="#fff"><path d="M61.8-71.7c0 .1 0 .1 0 .2-.1.1-.1.1-.2.1-.1.1-.1.3-.1.4-.2.1 0 .2 0 .3 0 0 0 .1 0 .2s0 .3.1.4c.1.2.3.4.4.5.2.1.4.6.6.6.2 0 .4-.1.5-.1.2 0 .4 0 .6-.1.2-.1.1-.3.3-.5.1-.1.3 0 .4-.1.2-.1.3-.3.4-.5 0-.1 0-.1 0-.2s.1-.2.1-.3c0-.1-.1-.1-.1-.2s0-.2 0-.3c0-.2 0-.4-.1-.5-.4-.7-1.2-.9-2-.8-.2 0-.3.1-.4.2-.2.1-.1.2-.3.2-.1 0-.2.1-.2.2 0 .3 0 .3 0 .3 0 .1 0 .1 0 0M54.1-71.7c0 .1 0 .1 0 .2-.1.1-.1.1-.2.1-.1.1-.1.3-.1.4-.2.1 0 .2 0 .3 0 0 0 .1 0 .2s0 .3.1.4c.1.2.3.4.4.5.2.1.4.6.6.6.2 0 .4-.1.5-.1.2 0 .4 0 .6-.1.2-.1.1-.3.3-.5.1-.1.3 0 .4-.1.2-.1.3-.3.4-.5 0-.1 0-.1 0-.2s.1-.2.1-.3c0-.1-.1-.1-.1-.2s0-.2 0-.3c0-.2 0-.4-.1-.5-.4-.7-1.2-.9-2-.8-.2 0-.3.1-.4.2-.2.1-.1.2-.3.2-.1 0-.2.1-.2.2 0 .3 0 .3 0 .3 0 .1 0 .1 0 0M46.4-71.7c0 .1 0 .1 0 .2-.1.1-.1.1-.2.1-.1.1-.1.3-.1.4-.2.1 0 .2 0 .3 0 0 0 .1 0 .2s0 .3.1.4c.1.2.3.4.4.5.2.1.4.6.6.6.2 0 .4-.1.5-.1.2 0 .4 0 .6-.1.2-.1.1-.3.3-.5.1-.1.3 0 .4-.1.2-.1.3-.3.4-.5 0-.1 0-.1 0-.2s.1-.2.1-.3c0-.1-.1-.1-.1-.2s0-.2 0-.3c0-.2 0-.4-.1-.5-.4-.7-1.2-.9-2-.8-.2 0-.3.1-.4.2-.2.1-.1.2-.3.2-.1 0-.2.1-.2.2 0 .3 0 .3 0 .3 0 .1 0 .1 0 0M38.8-71.7c0 .1 0 .1 0 .2-.1.1-.1.1-.2.1-.1.1-.1.3-.1.4-.2.1 0 .2 0 .3 0 0 0 .1 0 .2s0 .3.1.4c.1.2.3.4.4.5.2.1.4.6.6.6.2 0 .4-.1.5-.1.2 0 .4 0 .6-.1.2-.1.1-.3.3-.5.1-.1.3 0 .4-.1.2-.1.3-.3.4-.5 0-.1 0-.1 0-.2s.1-.2.1-.3c0-.1-.1-.1-.1-.2s0-.2 0-.3c0-.2 0-.4-.1-.5-.4-.7-1.2-.9-2-.8-.2 0-.3.1-.4.2-.2.1-.1.2-.3.2-.1 0-.2.1-.2.2 0 .3 0 .3 0 .3 0 .1 0 .1 0 0M31.1-71.7c0 .1 0 .1 0 .2-.1.1-.1.1-.2.1-.1.1-.1.3-.1.4-.2.1 0 .2 0 .3 0 0 0 .1 0 .2s0 .3.1.4c.1.2.3.4.4.5.2.1.4.6.6.6.2 0 .4-.1.5-.1.2 0 .4 0 .6-.1.2-.1.1-.3.3-.5.1-.1.3 0 .4-.1.2-.1.3-.3.4-.5 0-.1 0-.1 0-.2s.1-.2.1-.3c0-.1-.1-.1-.1-.2s0-.2 0-.3c0-.2 0-.4-.1-.5-.4-.7-1.2-.9-2-.8-.2 0-.3.1-.4.2-.2.1-.1.2-.3.2-.1 0-.2.1-.2.2 0 .3 0 .3 0 .3 0 .1 0 .1 0 0M23.4-71.7c0 .1 0 .1 0 .2-.1.1-.1.1-.2.1-.1.1-.1.3-.1.4-.2.1 0 .2 0 .3 0 0 0 .1 0 .2s0 .3.1.4c.1.2.3.4.4.5.2.1.4.6.6.6.2 0 .4-.1.5-.1.2 0 .4 0 .6-.1.2-.1.1-.3.3-.5.1-.1.3 0 .4-.1.2-.1.3-.3.4-.5 0-.1 0-.1 0-.2s.1-.2.1-.3c0-.1-.1-.1-.1-.2s0-.2 0-.3c0-.2 0-.4-.1-.5-.4-.7-1.2-.9-2-.8-.2 0-.3.1-.4.2-.2.1-.1.2-.3.2-.1 0-.2.1-.2.2 0 .3 0 .3 0 .3 0 .1 0 .1 0 0M15.8-71.7c0 .1 0 .1 0 .2-.1.1-.1.1-.2.1-.1.1-.1.3-.1.4-.2.1 0 .2 0 .3 0 0 0 .1 0 .2s0 .3.1.4c.1.2.3.4.4.5.2.1.4.6.6.6.2 0 .4-.1.5-.1.2 0 .4 0 .6-.1.2-.1.1-.3.3-.5.1-.1.3 0 .4-.1.2-.1.3-.3.4-.5 0-.1 0-.1 0-.2s.1-.2.1-.3c0-.1-.1-.1-.1-.2s0-.2 0-.3c0-.2 0-.4-.1-.5-.4-.7-1.2-.9-2-.8-.2 0-.3.1-.4.2-.2.1-.1.2-.3.2-.1 0-.2.1-.2.2 0 .3 0 .3 0 .3 0 .1 0 .1 0 0M8.1-71.7c0 .1 0 .1 0 .2-.1.1-.1.1-.2.2s-.1.3-.1.4c-.2.1 0 .2 0 .3 0 0 0 .1 0 .2s0 .3.1.4c.1.2.3.4.4.5.2.1.4.6.6.6.2 0 .4-.1.5-.1.2 0 .4 0 .6-.1.2-.1.1-.3.3-.5.1-.1.3 0 .4-.1.2-.1.3-.3.4-.5 0-.1 0-.1 0-.2s.1-.2.1-.3c0-.1-.1-.1-.1-.2s0-.2 0-.3c0-.2 0-.4-.1-.5-.4-.7-1.2-.9-2-.8-.2 0-.3.1-.4.2-.2.1-.1.2-.3.2-.1 0-.2.1-.2.2 0 .2 0 .2 0 .2 0 .1 0 .1 0 0M.4-71.7c0 .1 0 .1 0 .2-.1.1-.1.1-.2.1-.1.1-.1.3-.1.4-.2.1 0 .2 0 .3 0 0 0 .1 0 .2s0 .3.1.4c.1.2.3.4.4.5.2.2.4.6.6.7.2 0 .4-.1.5-.1.2 0 .4 0 .6-.1.2-.1.1-.3.3-.5.1-.1.3 0 .4-.1.2-.1.3-.3.4-.5 0-.1 0-.1 0-.2s.1-.2.1-.3c0-.1-.1-.1-.1-.2s0-.2 0-.3c0-.2 0-.4-.1-.5-.4-.7-1.2-.9-2-.8-.2 0-.3.1-.4.2-.2.1-.1.2-.3.2-.1 0-.2.1-.2.2 0 .2 0 .2 0 .2 0 .1 0 .1 0 0"/></g><path fill="#fff" d="M69.4-71.7c0 .1 0 .1 0 .2-.1.1-.1.1-.2.1-.1.1-.1.3-.1.4-.2.1 0 .2 0 .3 0 0 0 .1 0 .2s0 .3.1.4c.1.2.3.4.4.5.2.1.4.6.6.6.2 0 .4-.1.5-.1.2 0 .4 0 .6-.1.2-.1.1-.3.3-.5.1-.1.3 0 .4-.1.2-.1.3-.3.4-.5 0-.1 0-.1 0-.2s.1-.2.1-.3c0-.1-.1-.1-.1-.2s0-.2 0-.3c0-.2 0-.4-.1-.5-.4-.7-1.2-.9-2-.8-.2 0-.3.1-.4.2-.2.1-.1.2-.3.2-.1 0-.2.1-.2.2 0 .3 0 .3 0 .3 0 .1 0 .1 0 0M.5-71.7c0 .1 0 .1 0 .2-.1.1-.1.1-.2.1-.1.1-.1.3-.1.4-.2.1 0 .2 0 .3 0 0 0 .1 0 .2s0 .3.1.4c.1.2.3.4.4.5.2.2.3.6.6.7.2 0 .4-.1.5-.1.2 0 .4 0 .6-.1.2-.1.1-.3.3-.5.1-.1.3 0 .4-.1.2-.1.3-.3.4-.5 0-.1 0-.1 0-.2s.1-.2.1-.3c0-.1-.1-.1-.1-.2s0-.2 0-.3c0-.2 0-.4-.1-.5-.4-.7-1.2-.9-2-.8-.2 0-.3.1-.4.2-.2.1-.1.2-.3.2-.1 0-.2.1-.2.2 0 .2 0 .2 0 .2 0 .1 0 .1 0 0"/><g fill="#fff"><path d="M69.4-64c0 .1 0 .1 0 .2-.1.1-.1.1-.2.1-.1.1-.1.3-.1.4-.2.1 0 .2 0 .3 0 0 0 .1 0 .2s0 .3.1.4c.1.2.3.4.4.5.2.1.4.6.6.6.2 0 .4-.1.5-.1.2 0 .4 0 .6-.1.2-.1.1-.3.3-.5.1-.1.3 0 .4-.1.2-.1.3-.3.4-.5 0-.1 0-.1 0-.2s.1-.2.1-.3c0-.1-.1-.1-.1-.2s0-.2 0-.3c0-.2 0-.4-.1-.5-.4-.7-1.2-.9-2-.8-.2 0-.3.1-.4.2-.2.1-.1.2-.3.2-.1 0-.2.1-.2.2 0 .3 0 .2 0 .3M61.8-64c0 .1 0 .1 0 .2-.1.1-.1.1-.2.1-.1.1-.1.3-.1.4-.2.1 0 .2 0 .3 0 0 0 .1 0 .2s0 .3.1.4c.1.2.3.4.4.5.2.1.4.6.6.6.2 0 .4-.1.5-.1.2 0 .4 0 .6-.1.2-.1.1-.3.3-.5.1-.1.3 0 .4-.1.2-.1.3-.3.4-.5 0-.1 0-.1 0-.2s.1-.2.1-.3c0-.1-.1-.1-.1-.2s0-.2 0-.3c0-.2 0-.4-.1-.5-.4-.7-1.2-.9-2-.8-.2 0-.3.1-.4.2-.2.1-.1.2-.3.2-.1 0-.2.1-.2.2 0 .3 0 .2 0 .3M54.1-64c0 .1 0 .1 0 .2-.1.1-.1.1-.2.1-.1.1-.1.3-.1.4-.2.1 0 .2 0 .3 0 0 0 .1 0 .2s0 .3.1.4c.1.2.3.4.4.5.2.1.4.6.6.6.2 0 .4-.1.5-.1.2 0 .4 0 .6-.1.2-.1.1-.3.3-.5.1-.1.3 0 .4-.1.2-.1.3-.3.4-.5 0-.1 0-.1 0-.2s.1-.2.1-.3c0-.1-.1-.1-.1-.2s0-.2 0-.3c0-.2 0-.4-.1-.5-.4-.7-1.2-.9-2-.8-.2 0-.3.1-.4.2-.2.1-.1.2-.3.2-.1 0-.2.1-.2.2 0 .3 0 .2 0 .3M46.5-64c0 .1 0 .1 0 .2-.1.1-.1.1-.2.1-.1.1-.1.3-.1.4-.2.1 0 .2 0 .3 0 0 0 .1 0 .2s0 .3.1.4c.1.2.3.4.4.5.2.1.4.6.6.6.2 0 .4-.1.5-.1.2 0 .4 0 .6-.1.2-.1.1-.3.3-.5.1-.1.3 0 .4-.1.2-.1.3-.3.4-.5 0-.1 0-.1 0-.2s.1-.2.1-.3c0-.1-.1-.1-.1-.2s0-.2 0-.3c0-.2 0-.4-.1-.5-.4-.7-1.2-.9-2-.8-.2 0-.3.1-.4.2-.2.1-.1.2-.3.2-.1 0-.2.1-.2.2 0 .3 0 .2 0 .3M38.8-64c0 .1 0 .1 0 .2-.1.1-.1.1-.2.1-.1.1-.1.3-.1.4-.2.1 0 .2 0 .3 0 0 0 .1 0 .2s0 .3.1.4c.1.2.3.4.4.5.2.1.4.6.6.6.2 0 .4-.1.5-.1.2 0 .4 0 .6-.1.2-.1.1-.3.3-.5.1-.1.3 0 .4-.1.2-.1.3-.3.4-.5 0-.1 0-.1 0-.2s.1-.2.1-.3c0-.1-.1-.1-.1-.2s0-.2 0-.3c0-.2 0-.4-.1-.5-.4-.7-1.2-.9-2-.8-.2 0-.3.1-.4.2-.2.1-.1.2-.3.2-.1 0-.2.1-.2.2 0 .3 0 .2 0 .3M31.1-64c0 .1 0 .1 0 .2-.1.1-.1.1-.2.1-.1.1-.1.3-.1.4-.2.1 0 .2 0 .3 0 0 0 .1 0 .2s0 .3.1.4c.1.2.3.4.4.5.2.1.4.6.6.6.2 0 .4-.1.5-.1.2 0 .4 0 .6-.1.2-.1.1-.3.3-.5.1-.1.3 0 .4-.1.2-.1.3-.3.4-.5 0-.1 0-.1 0-.2s.1-.2.1-.3c0-.1-.1-.1-.1-.2s0-.2 0-.3c0-.2 0-.4-.1-.5-.4-.7-1.2-.9-2-.8-.2 0-.3.1-.4.2-.2.1-.1.2-.3.2-.1 0-.2.1-.2.2 0 .3 0 .2 0 .3M23.5-64c0 .1 0 .1 0 .2-.1.1-.1.1-.2.1-.1.1-.1.3-.1.4-.2.1 0 .2 0 .3 0 0 0 .1 0 .2s0 .3.1.4c.1.2.3.4.4.5.2.1.4.6.6.6.2 0 .4-.1.5-.1.2 0 .4 0 .6-.1.2-.1.1-.3.3-.5.1-.1.3 0 .4-.1.2-.1.3-.3.4-.5 0-.1 0-.1 0-.2s.1-.2.1-.3c0-.1-.1-.1-.1-.2s0-.2 0-.3c0-.2 0-.4-.1-.5-.4-.7-1.2-.9-2-.8-.2 0-.3.1-.4.2-.2.1-.1.2-.3.2-.1 0-.2.1-.2.2 0 .3 0 .2 0 .3M15.8-64c0 .1 0 .1 0 .2-.1.1-.1.1-.2.1-.1.1-.1.3-.1.4-.2.1 0 .2 0 .3 0 0 0 .1 0 .2s0 .3.1.4c.1.2.3.4.4.5.2.1.4.6.6.6.2 0 .4-.1.5-.1.2 0 .4 0 .6-.1.2-.1.1-.3.3-.5.1-.1.3 0 .4-.1.2-.1.3-.3.4-.5 0-.1 0-.1 0-.2s.1-.2.1-.3c0-.1-.1-.1-.1-.2s0-.2 0-.3c0-.2 0-.4-.1-.5-.4-.7-1.2-.9-2-.8-.2 0-.3.1-.4.2-.2.1-.1.2-.3.2-.1 0-.2.1-.2.2 0 .3 0 .2 0 .3M8.2-64c0 .1 0 .1 0 .2-.1.1-.2.1-.2.1-.1.1-.1.3-.1.4-.2.1 0 .2 0 .3 0 0 0 .1 0 .2s0 .3.1.4c0 .2.2.4.3.5.2.1.4.6.6.6.2 0 .4-.1.5-.1.2 0 .4 0 .6-.1.2-.1.1-.3.3-.5.1-.1.3 0 .4-.1.2-.1.3-.3.4-.5 0-.1 0-.1 0-.2s.1-.2.1-.3c0-.1-.1-.1-.1-.2s0-.2 0-.3c0-.2 0-.4-.1-.5-.4-.7-1.2-.9-2-.8-.2 0-.3.1-.4.2-.2.1-.1.2-.3.2-.1 0-.2.1-.2.2.1.3.1.2.1.3-.1 0-.1 0 0 0M.5-64c0 .1 0 .1 0 .2-.1.1-.1.1-.2.1-.1.1-.1.3-.1.4-.2.1 0 .2 0 .3 0 0 0 .1 0 .2s0 .3.1.4c.1.2.3.4.4.5.2.1.4.6.6.6.2 0 .4-.1.5-.1.2 0 .4 0 .6-.1.2-.1.1-.3.3-.5.1 0 .3.1.4 0 .2-.1.3-.3.4-.5 0-.1 0-.1 0-.2s.1-.2.1-.3c0-.1-.1-.1-.1-.2s0-.2 0-.3c0-.2 0-.4-.1-.5-.4-.7-1.2-.9-2-.8-.2 0-.3.1-.4.2-.2.1-.1.2-.3.2-.1 0-.2.1-.2.2 0 .2 0 .1 0 .2M69.4-56.3c0 .1 0 .1 0 .2-.1.1-.1.1-.2.1-.1.1-.1.3-.1.4-.2.1 0 .2 0 .3 0 0 0 .1 0 .2s0 .3.1.4c.1.2.3.4.4.5.2.1.4.6.6.6.2 0 .4-.1.5-.1.2 0 .4 0 .6-.1.2-.1.1-.3.3-.5.1-.1.3 0 .4-.1.2-.1.3-.3.4-.5 0-.1 0-.1 0-.2s.1-.2.1-.3c0-.1-.1-.1-.1-.2s0-.2 0-.3c0-.2 0-.4-.1-.5-.4-.7-1.2-.9-2-.8-.2 0-.3.1-.4.2-.2.1-.1.2-.3.2-.1 0-.2.1-.2.2 0 .2 0 .2 0 .3M61.8-56.3c0 .1 0 .1 0 .2-.1.1-.1.1-.2.1-.1.1-.1.3-.1.4-.2.1 0 .2 0 .3 0 0 0 .1 0 .2s0 .3.1.4c.1.2.3.4.4.5.2.1.4.6.6.6.2 0 .4-.1.5-.1.2 0 .4 0 .6-.1.2-.1.1-.3.3-.5.1-.1.3 0 .4-.1.2-.1.3-.3.4-.5 0-.1 0-.1 0-.2s.1-.2.1-.3c0-.1-.1-.1-.1-.2s0-.2 0-.3c0-.2 0-.4-.1-.5-.4-.7-1.2-.9-2-.8-.2 0-.3.1-.4.2-.2.1-.1.2-.3.2-.1 0-.2.1-.2.2 0 .2 0 .2 0 .3M54.1-56.3c0 .1 0 .1 0 .2-.1 0-.1 0-.2.1s-.1.3-.1.4c-.2.1 0 .2 0 .3 0 0 0 .1 0 .2s0 .3.1.4c.1.2.3.4.4.5.2.1.4.6.6.6.2 0 .4-.1.5-.1.2 0 .4 0 .6-.1.2-.1.1-.3.3-.5.1-.1.3 0 .4-.1.2-.1.3-.3.4-.5 0-.1 0-.1 0-.2s.1-.2.1-.3c0-.1-.1-.1-.1-.2s0-.2 0-.3c0-.2 0-.4-.1-.5-.4-.7-1.2-.9-2-.8-.2 0-.3.1-.4.2-.2.1-.1.2-.3.2-.1 0-.2.1-.2.2 0 .2 0 .2 0 .3M46.5-56.3c0 .1 0 .1 0 .2-.1.1-.1.1-.2.1-.1.1-.1.3-.1.4-.2.1 0 .2 0 .3 0 0 0 .1 0 .2s0 .3.1.4c.1.2.3.4.4.5.2.1.4.6.6.6.2 0 .4-.1.5-.1.2 0 .4 0 .6-.1.2-.1.1-.3.3-.5.1-.1.3 0 .4-.1.2-.1.3-.3.4-.5 0-.1 0-.1 0-.2s.1-.2.1-.3c0-.1-.1-.1-.1-.2s0-.2 0-.3c0-.2 0-.4-.1-.5-.4-.7-1.2-.9-2-.8-.2 0-.3.1-.4.2-.2.1-.1.2-.3.2-.1 0-.2.1-.2.2 0 .2 0 .2 0 .3M38.8-56.3c0 .1 0 .1 0 .2-.1.1-.1.1-.2.1-.1.1-.1.3-.1.4-.2.1 0 .2 0 .3 0 0 0 .1 0 .2s0 .3.1.4c.1.2.3.4.4.5.2.1.4.6.6.6.2 0 .4-.1.5-.1.2 0 .4 0 .6-.1.2-.1.1-.3.3-.5.1-.1.3 0 .4-.1.2-.1.3-.3.4-.5 0-.1 0-.1 0-.2s.1-.2.1-.3c0-.1-.1-.1-.1-.2s0-.2 0-.3c0-.2 0-.4-.1-.5-.4-.7-1.2-.9-2-.8-.2 0-.3.1-.4.2-.2.1-.1.2-.3.2-.1 0-.2.1-.2.2 0 .2 0 .2 0 .3M31.1-56.3c0 .1 0 .1 0 .2-.1.1-.1.1-.2.1-.1.1-.1.3-.1.4-.2.1 0 .2 0 .3 0 0 0 .1 0 .2s0 .3.1.4c.1.2.3.4.4.5.2.1.4.6.6.6.2 0 .4-.1.5-.1.2 0 .4 0 .6-.1.2-.1.1-.3.3-.5.1-.1.3 0 .4-.1.2-.1.3-.3.4-.5 0-.1 0-.1 0-.2s.1-.2.1-.3c0-.1-.1-.1-.1-.2s0-.2 0-.3c0-.2 0-.4-.1-.5-.4-.7-1.2-.9-2-.8-.2 0-.3.1-.4.2-.2.1-.1.2-.3.2-.1 0-.2.1-.2.2 0 .2 0 .2 0 .3M23.5-56.3c0 .1 0 .1 0 .2-.1.1-.1.1-.2.1-.1.1-.1.3-.1.4-.2.1 0 .2 0 .3 0 0 0 .1 0 .2s0 .3.1.4c.1.2.3.4.4.5.2.1.4.6.6.6.2 0 .4-.1.5-.1.2 0 .4 0 .6-.1.2-.1.1-.3.3-.5.1-.1.3 0 .4-.1.2-.1.3-.3.4-.5 0-.1 0-.1 0-.2s.1-.2.1-.3c0-.1-.1-.1-.1-.2s0-.2 0-.3c0-.2 0-.4-.1-.5-.4-.7-1.2-.9-2-.8-.2 0-.3.1-.4.2-.2.1-.1.2-.3.2-.1 0-.2.1-.2.2 0 .2 0 .2 0 .3M15.8-56.3c0 .1 0 .1 0 .2-.1.1-.1.1-.2.1-.1.1-.1.3-.1.4-.2.1 0 .2 0 .3 0 0 0 .1 0 .2s0 .3.1.4c.1.2.3.4.4.5.2.1.4.6.6.6.2 0 .4-.1.5-.1.2 0 .4 0 .6-.1.2-.1.1-.3.3-.5.1-.1.3 0 .4-.1.2-.1.3-.3.4-.5 0-.1 0-.1 0-.2s.1-.2.1-.3c0-.1-.1-.1-.1-.2s0-.2 0-.3c0-.2 0-.4-.1-.5-.4-.7-1.2-.9-2-.8-.2 0-.3.1-.4.2-.2.1-.1.2-.3.2-.1 0-.2.1-.2.2 0 .2 0 .2 0 .3M8.2-56.3c0 .1 0 .1 0 .2-.1 0-.2 0-.2.1-.1.1-.1.3-.1.4-.2.1 0 .2 0 .3 0 0 0 .1 0 .2s0 .3.1.4c.1.2.3.4.4.5.2.1.4.6.6.6.2 0 .4-.1.5-.1.2 0 .4 0 .6-.1.2-.1.1-.3.3-.5.1-.1.3 0 .4-.1.2-.1.3-.3.4-.5 0-.1 0-.1 0-.2s.1-.2.1-.3c0-.1-.1-.1-.1-.2s0-.2 0-.3c0-.2 0-.4-.1-.5-.4-.7-1.2-.9-2-.8-.2 0-.3.1-.4.2-.2.1-.1.2-.3.2-.1 0-.2.1-.2.2 0 .2 0 .2 0 .3-.1 0-.1 0 0 0M.5-56.3c0 .1 0 .1 0 .2-.1.1-.1.1-.2.1-.1.1-.1.3-.1.4-.2.1 0 .2 0 .3 0 0 0 .1 0 .2s0 .3.1.4c.1.2.3.4.4.5.2.1.4.6.6.6.2 0 .4-.1.5-.1.2 0 .4 0 .6-.1.2-.1.1-.3.3-.5.1-.1.3 0 .4-.1.2-.1.3-.3.4-.5 0-.1 0-.1 0-.2s.1-.2.1-.3c0-.1-.1-.1-.1-.2s0-.2 0-.3c0-.2 0-.4-.1-.5-.4-.7-1.2-.9-2-.8-.2 0-.3.1-.4.2-.2.1-.1.2-.3.2-.1 0-.2.1-.2.2 0 .2 0 .2 0 .3M69.4-48.7c0 .1 0 .1 0 .2-.1.1-.1.1-.2.1-.1.1-.1.3-.1.4-.2.1 0 .2 0 .3 0 0 0 .1 0 .2s0 .3.1.4c.1.2.3.4.4.5.2.1.4.6.6.6.2 0 .4-.1.5-.1.2 0 .4 0 .6-.1.2-.1.1-.3.3-.5.1-.1.3 0 .4-.1.2-.1.3-.3.4-.5 0-.1 0-.1 0-.2s.1-.2.1-.3c0-.1-.1-.1-.1-.2s0-.2 0-.3c0-.2 0-.4-.1-.5-.4-.7-1.2-.9-2-.8-.2 0-.3.1-.4.2-.2.1-.1.2-.3.2-.1 0-.2.1-.2.2 0 .3 0 .2 0 .3M61.8-48.7c0 .1 0 .1 0 .2-.1.1-.1.1-.2.1-.1.1-.1.3-.1.4-.2.1 0 .2 0 .3 0 0 0 .1 0 .2s0 .3.1.4c.1.2.3.4.4.5.2.1.4.6.6.6.2 0 .4-.1.5-.1.2 0 .4 0 .6-.1.2-.1.1-.3.3-.5.1-.1.3 0 .4-.1.2-.1.3-.3.4-.5 0-.1 0-.1 0-.2s.1-.2.1-.3c0-.1-.1-.1-.1-.2s0-.2 0-.3c0-.2 0-.4-.1-.5-.4-.7-1.2-.9-2-.8-.2 0-.3.1-.4.2-.2.1-.1.2-.3.2-.1 0-.2.1-.2.2 0 .3 0 .2 0 .3M54.1-48.7c0 .1 0 .1 0 .2-.1.1-.1.1-.2.1-.1.1-.1.3-.1.4-.2.1 0 .2 0 .3 0 0 0 .1 0 .2s0 .3.1.4c.1.2.3.4.4.5.2.1.4.6.6.6.2 0 .4-.1.5-.1.2 0 .4 0 .6-.1.2-.1.1-.3.3-.5.1-.1.3 0 .4-.1.2-.1.3-.3.4-.5 0-.1 0-.1 0-.2s.1-.2.1-.3c0-.1-.1-.1-.1-.2s0-.2 0-.3c0-.2 0-.4-.1-.5-.4-.7-1.2-.9-2-.8-.2 0-.3.1-.4.2-.2.1-.1.2-.3.2-.1 0-.2.1-.2.2 0 .3 0 .2 0 .3M46.5-48.7c0 .1 0 .1 0 .2-.1.1-.1.1-.2.1-.1.1-.1.3-.1.4-.2.1 0 .2 0 .3 0 0 0 .1 0 .2s0 .3.1.4c.1.2.3.4.4.5.2.1.4.6.6.6.2 0 .4-.1.5-.1.2 0 .4 0 .6-.1.2-.1.1-.3.3-.5.1-.1.3 0 .4-.1.2-.1.3-.3.4-.5 0-.1 0-.1 0-.2s.1-.2.1-.3c0-.1-.1-.1-.1-.2s0-.2 0-.3c0-.2 0-.4-.1-.5-.4-.7-1.2-.9-2-.8-.2 0-.3.1-.4.2-.2.1-.1.2-.3.2-.1 0-.2.1-.2.2 0 .3 0 .2 0 .3M38.8-48.7c0 .1 0 .1 0 .2-.1.1-.1.1-.2.1-.1.1-.1.3-.1.4-.2.1 0 .2 0 .3 0 0 0 .1 0 .2s0 .3.1.4c.1.2.3.4.4.5.2.1.4.6.6.6.2 0 .4-.1.5-.1.2 0 .4 0 .6-.1.2-.1.1-.3.3-.5.1-.1.3 0 .4-.1.2-.1.3-.3.4-.5 0-.1 0-.1 0-.2s.1-.2.1-.3c0-.1-.1-.1-.1-.2s0-.2 0-.3c0-.2 0-.4-.1-.5-.4-.7-1.2-.9-2-.8-.2 0-.3.1-.4.2-.2.1-.1.2-.3.2-.1 0-.2.1-.2.2 0 .3 0 .2 0 .3M31.1-48.7c0 .1 0 .1 0 .2-.1.1-.1.1-.2.1-.1.1-.1.3-.1.4-.2.1 0 .2 0 .3 0 0 0 .1 0 .2s0 .3.1.4c.1.2.3.4.4.5.2.1.4.6.6.6.2 0 .4-.1.5-.1.2 0 .4 0 .6-.1.2-.1.1-.3.3-.5.1-.1.3 0 .4-.1.2-.1.3-.3.4-.5 0-.1 0-.1 0-.2s.1-.2.1-.3c0-.1-.1-.1-.1-.2s0-.2 0-.3c0-.2 0-.4-.1-.5-.4-.7-1.2-.9-2-.8-.2 0-.3.1-.4.2-.2.1-.1.2-.3.2-.1 0-.2.1-.2.2 0 .3 0 .2 0 .3M23.5-48.7c0 .1 0 .1 0 .2-.1.1-.1.1-.2.1-.1.1-.1.3-.1.4-.2.1 0 .2 0 .3 0 0 0 .1 0 .2s0 .3.1.4c.1.2.3.4.4.5.2.1.4.6.6.6.2 0 .4-.1.5-.1.2 0 .4 0 .6-.1.2-.1.1-.3.3-.5.1-.1.3 0 .4-.1.2-.1.3-.3.4-.5 0-.1 0-.1 0-.2s.1-.2.1-.3c0-.1-.1-.1-.1-.2s0-.2 0-.3c0-.2 0-.4-.1-.5-.4-.7-1.2-.9-2-.8-.2 0-.3.1-.4.2-.2.1-.1.2-.3.2-.1 0-.2.1-.2.2 0 .3 0 .2 0 .3M15.8-48.7c0 .1 0 .1 0 .2-.1.1-.1.1-.2.1-.1.1-.1.3-.1.4-.2.1 0 .2 0 .3 0 0 0 .1 0 .2s0 .3.1.4c.1.2.3.4.4.5.2.1.4.6.6.6.2 0 .4-.1.5-.1.2 0 .4 0 .6-.1.2-.1.1-.3.3-.5.1-.1.3 0 .4-.1.2-.1.3-.3.4-.5 0-.1 0-.1 0-.2s.1-.2.1-.3c0-.1-.1-.1-.1-.2s0-.2 0-.3c0-.2 0-.4-.1-.5-.4-.7-1.2-.9-2-.8-.2 0-.3.1-.4.2-.2.1-.1.2-.3.2-.1 0-.2.1-.2.2 0 .3 0 .2 0 .3M8.2-48.7c0 .1 0 .1 0 .2-.1.1-.2.1-.2.1-.1.1-.1.3-.1.4-.2.1 0 .2 0 .3 0 0 0 .1 0 .2s0 .3.1.4c.1.2.3.4.4.5.1.2.3.6.5.6s.4-.1.5-.1c.2 0 .4 0 .6-.1.2-.1.1-.3.3-.5.1-.1.3 0 .4-.1.2-.1.3-.3.4-.5 0-.1 0-.1 0-.2s.1-.2.1-.3c0-.1-.1-.1-.1-.2s0-.2 0-.3c0-.2 0-.4-.1-.5-.4-.7-1.2-.9-2-.8-.2 0-.3.1-.4.2-.2.1-.1.2-.3.2-.1 0-.2.1-.2.2.1.3.1.2.1.3-.1 0-.1 0 0 0M.5-48.7c0 .1 0 .1 0 .2-.1.1-.1.1-.2.1-.1.1-.1.3-.1.4-.2.1 0 .2 0 .3 0 0 0 .1 0 .2s0 .3.1.4c.1.2.3.4.4.5.2.2.3.6.6.6.2 0 .4-.1.5-.1.2 0 .4 0 .6-.1.2-.1.1-.3.3-.5.1-.1.3 0 .4-.1.2-.1.3-.3.4-.5 0-.1 0-.1 0-.2s.1-.2.1-.3c0-.1-.1-.1-.1-.2s0-.2 0-.3c0-.2 0-.4-.1-.5-.4-.7-1.2-.9-2-.8-.2 0-.3.1-.4.2-.2.1-.1.2-.3.2-.1 0-.2.1-.2.2 0 .3 0 .2 0 .3M69.4-41c0 .1 0 .1 0 .2-.1.1-.1.1-.2.1-.1.1-.1.3-.1.4-.2.1 0 .2 0 .3 0 0 0 .1 0 .2s0 .3.1.4c.1.2.3.4.4.5.2.1.4.6.6.6.2 0 .4-.1.5-.1.2 0 .4 0 .6-.1.2-.1.1-.3.3-.5.1-.1.3 0 .4-.1.2-.1.3-.3.4-.5 0-.1 0-.1 0-.2s.1-.2.1-.3c0-.1-.1-.1-.1-.2s0-.2 0-.3c0-.2 0-.4-.1-.5-.4-.7-1.2-.9-2-.8-.2 0-.3.1-.4.2-.2.1-.1.2-.3.2-.1 0-.2.1-.2.2 0 .2 0 .2 0 .3M61.8-41c0 .1 0 .1 0 .2-.1.1-.1.1-.2.1-.1.1-.1.3-.1.4-.2.1 0 .2 0 .3 0 0 0 .1 0 .2s0 .3.1.4c.1.2.3.4.4.5.2.1.4.6.6.6.2 0 .4-.1.5-.1.2 0 .4 0 .6-.1.2-.1.1-.3.3-.5.1-.1.3 0 .4-.1.2-.1.3-.3.4-.5 0-.1 0-.1 0-.2s.1-.2.1-.3c0-.1-.1-.1-.1-.2s0-.2 0-.3c0-.2 0-.4-.1-.5-.4-.7-1.2-.9-2-.8-.2 0-.3.1-.4.2-.2.1-.1.2-.3.2-.1 0-.2.1-.2.2 0 .2 0 .2 0 .3M54.1-41c0 .1 0 .1 0 .2-.1.1-.1.1-.2.1-.1.1-.1.3-.1.4-.2.1 0 .2 0 .3 0 0 0 .1 0 .2s0 .3.1.4c.1.2.3.4.4.5.2.1.4.6.6.6.2 0 .4-.1.5-.1.2 0 .4 0 .6-.1.2-.1.1-.3.3-.5.1-.1.3 0 .4-.1.2-.1.3-.3.4-.5 0-.1 0-.1 0-.2s.1-.2.1-.3c0-.1-.1-.1-.1-.2s0-.2 0-.3c0-.2 0-.4-.1-.5-.4-.7-1.2-.9-2-.8-.2 0-.3.1-.4.2-.2.1-.1.2-.3.2-.1 0-.2.1-.2.2 0 .2 0 .2 0 .3M46.5-41c0 .1 0 .1 0 .2-.1.1-.1.1-.2.1-.1.1-.1.3-.1.4-.2.1 0 .2 0 .3 0 0 0 .1 0 .2s0 .3.1.4c.1.2.3.4.4.5.2.1.4.6.6.6.2 0 .4-.1.5-.1.2 0 .4 0 .6-.1.2-.1.1-.3.3-.5.1-.1.3 0 .4-.1.2-.1.3-.3.4-.5 0-.1 0-.1 0-.2s.1-.2.1-.3c0-.1-.1-.1-.1-.2s0-.2 0-.3c0-.2 0-.4-.1-.5-.4-.7-1.2-.9-2-.8-.2 0-.3.1-.4.2-.2.1-.1.2-.3.2-.1 0-.2.1-.2.2 0 .2 0 .2 0 .3M38.8-41c0 .1 0 .1 0 .2-.1.1-.1.1-.2.1-.1.1-.1.3-.1.4-.2.1 0 .2 0 .3 0 0 0 .1 0 .2s0 .3.1.4c.1.2.3.4.4.5.2.1.4.6.6.6.2 0 .4-.1.5-.1.2 0 .4 0 .6-.1.2-.1.1-.3.3-.5.1-.1.3 0 .4-.1.2-.1.3-.3.4-.5 0-.1 0-.1 0-.2s.1-.2.1-.3c0-.1-.1-.1-.1-.2s0-.2 0-.3c0-.2 0-.4-.1-.5-.4-.7-1.2-.9-2-.8-.2 0-.3.1-.4.2-.2.1-.1.2-.3.2-.1 0-.2.1-.2.2 0 .2 0 .2 0 .3M31.1-41c0 .1 0 .1 0 .2-.1.1-.1.1-.2.1-.1.1-.1.3-.1.4-.2.1 0 .2 0 .3 0 0 0 .1 0 .2s0 .3.1.4c.1.2.3.4.4.5.2.1.4.6.6.6.2 0 .4-.1.5-.1.2 0 .4 0 .6-.1.2-.1.1-.3.3-.5.1-.1.3 0 .4-.1.2-.1.3-.3.4-.5 0-.1 0-.1 0-.2s.1-.2.1-.3c0-.1-.1-.1-.1-.2s0-.2 0-.3c0-.2 0-.4-.1-.5-.4-.7-1.2-.9-2-.8-.2 0-.3.1-.4.2-.2.1-.1.2-.3.2-.1 0-.2.1-.2.2 0 .2 0 .2 0 .3M23.5-41c0 .1 0 .1 0 .2-.1.1-.1.1-.2.1-.1.1-.1.3-.1.4-.2.1 0 .2 0 .3 0 0 0 .1 0 .2s0 .3.1.4c.1.2.3.4.4.5.2.1.4.6.6.6.2 0 .4-.1.5-.1.2 0 .4 0 .6-.1.2-.1.1-.3.3-.5.1-.1.3 0 .4-.1.2-.1.3-.3.4-.5 0-.1 0-.1 0-.2s.1-.2.1-.3c0-.1-.1-.1-.1-.2s0-.2 0-.3c0-.2 0-.4-.1-.5-.4-.7-1.2-.9-2-.8-.2 0-.3.1-.4.2-.2.1-.1.2-.3.2-.1 0-.2.1-.2.2 0 .2 0 .2 0 .3M15.8-41c0 .1 0 .1 0 .2-.1.1-.1.1-.2.1-.1.1-.1.3-.1.4-.2.1 0 .2 0 .3 0 0 0 .1 0 .2s0 .3.1.4c.1.2.3.4.4.5.2.1.4.6.6.6.2 0 .4-.1.5-.1.2 0 .4 0 .6-.1.2-.1.1-.3.3-.5.1-.1.3 0 .4-.1.2-.1.3-.3.4-.5 0-.1 0-.1 0-.2s.1-.2.1-.3c0-.1-.1-.1-.1-.2s0-.2 0-.3c0-.2 0-.4-.1-.5-.4-.7-1.2-.9-2-.8-.2 0-.3.1-.4.2-.2.1-.1.2-.3.2-.1 0-.2.1-.2.2 0 .2 0 .2 0 .3M8.2-41c0 .1 0 .1 0 .2-.1 0-.2 0-.2.1-.1.1-.1.3-.1.4-.2.1 0 .2 0 .3 0 0 0 .1 0 .2s0 .3.1.4c.1.2.3.4.4.5.2.1.4.6.6.6.2 0 .4-.1.5-.1.2 0 .4 0 .6-.1.2-.1.1-.3.3-.5.1-.1.3 0 .4-.1.2-.1.3-.3.4-.5 0-.1 0-.1 0-.2s.1-.2.1-.3c0-.1-.1-.1-.1-.2s0-.2 0-.3c0-.2 0-.4-.1-.5-.4-.7-1.2-.9-2-.8-.2 0-.3.1-.4.2-.2.1-.1.2-.3.2-.1 0-.2.1-.2.2 0 .2 0 .2 0 .3-.1 0-.1 0 0 0M.5-41c0 .1 0 .1 0 .2-.1.1-.1.1-.2.1-.1.1-.1.3-.1.4-.2.1 0 .2 0 .3 0 0 0 .1 0 .2s0 .3.1.4c.1.2.3.4.4.5.2.1.4.6.6.6.2 0 .4-.1.5-.1.2 0 .4 0 .6-.1.2-.1.1-.3.3-.5.1 0 .3 0 .4 0 .2-.1.3-.3.4-.5 0-.1 0-.1 0-.2s.1-.2.1-.3c0-.1-.1-.1-.1-.2s0-.2 0-.3c0-.2 0-.4-.1-.5-.4-.7-1.2-.9-2-.8-.2 0-.3.1-.4.2-.2.1-.1.2-.3.2-.1 0-.2.1-.2.2s0 .1 0 .2M69.4-33.4c0 .1 0 .1 0 .2-.1.1-.1.1-.2.1-.1.1-.1.3-.1.4-.2.1 0 .2 0 .3 0 0 0 .1 0 .2s0 .3.1.4c.1.2.3.4.4.5.2.1.4.6.6.6.2 0 .4-.1.5-.1.2 0 .4 0 .6-.1.2-.1.1-.3.3-.5.1-.1.3 0 .4-.1.2-.1.3-.3.4-.5 0-.1 0-.1 0-.2s.1-.2.1-.3c0-.1-.1-.1-.1-.2s0-.2 0-.3c0-.2 0-.4-.1-.5-.4-.7-1.2-.9-2-.8-.2 0-.3.1-.4.2-.2.1-.1.2-.3.2-.1 0-.2.1-.2.2 0 .3 0 .2 0 .3M61.8-33.4c0 .1 0 .1 0 .2-.1.1-.1.1-.2.1-.1.1-.1.3-.1.4-.2.1 0 .2 0 .3 0 0 0 .1 0 .2s0 .3.1.4c.1.2.3.4.4.5.2.1.4.6.6.6.2 0 .4-.1.5-.1.2 0 .4 0 .6-.1.2-.1.1-.3.3-.5.1-.1.3 0 .4-.1.2-.1.3-.3.4-.5 0-.1 0-.1 0-.2s.1-.2.1-.3c0-.1-.1-.1-.1-.2s0-.2 0-.3c0-.2 0-.4-.1-.5-.4-.7-1.2-.9-2-.8-.2 0-.3.1-.4.2-.2.1-.1.2-.3.2-.1 0-.2.1-.2.2 0 .3 0 .2 0 .3M54.1-33.4c0 .1 0 .1 0 .2-.1.1-.1.1-.2.1-.1.1-.1.3-.1.4-.2.1 0 .2 0 .3 0 0 0 .1 0 .2s0 .3.1.4c.1.2.3.4.4.5.2.1.4.6.6.6.2 0 .4-.1.5-.1.2 0 .4 0 .6-.1.2-.1.1-.3.3-.5.1-.1.3 0 .4-.1.2-.1.3-.3.4-.5 0-.1 0-.1 0-.2s.1-.2.1-.3c0-.1-.1-.1-.1-.2s0-.2 0-.3c0-.2 0-.4-.1-.5-.4-.7-1.2-.9-2-.8-.2 0-.3.1-.4.2-.2.1-.1.2-.3.2-.1 0-.2.1-.2.2 0 .3 0 .2 0 .3M46.5-33.4c0 .1 0 .1 0 .2-.1.1-.1.1-.2.1-.1.1-.1.3-.1.4-.2.1 0 .2 0 .3 0 0 0 .1 0 .2s0 .3.1.4c.1.2.3.4.4.5.2.1.4.6.6.6.2 0 .4-.1.5-.1.2 0 .4 0 .6-.1.2-.1.1-.3.3-.5.1-.1.3 0 .4-.1.2-.1.3-.3.4-.5 0-.1 0-.1 0-.2s.1-.2.1-.3c0-.1-.1-.1-.1-.2s0-.2 0-.3c0-.2 0-.4-.1-.5-.4-.7-1.2-.9-2-.8-.2 0-.3.1-.4.2-.2.1-.1.2-.3.2-.1 0-.2.1-.2.2 0 .3 0 .2 0 .3M38.8-33.4c0 .1 0 .1 0 .2-.1.1-.1.1-.2.1-.1.1-.1.3-.1.4-.2.1 0 .2 0 .3 0 0 0 .1 0 .2s0 .3.1.4c.1.2.3.4.4.5.2.1.4.6.6.6.2 0 .4-.1.5-.1.2 0 .4 0 .6-.1.2-.1.1-.3.3-.5.1-.1.3 0 .4-.1.2-.1.3-.3.4-.5 0-.1 0-.1 0-.2s.1-.2.1-.3c0-.1-.1-.1-.1-.2s0-.2 0-.3c0-.2 0-.4-.1-.5-.4-.7-1.2-.9-2-.8-.2 0-.3.1-.4.2-.2.1-.1.2-.3.2-.1 0-.2.1-.2.2 0 .3 0 .2 0 .3M31.1-33.4c0 .1 0 .1 0 .2-.1.1-.1.1-.2.1-.1.1-.1.3-.1.4-.2.1 0 .2 0 .3 0 0 0 .1 0 .2s0 .3.1.4c.1.2.3.4.4.5.2.1.4.6.6.6.2 0 .4-.1.5-.1.2 0 .4 0 .6-.1.2-.1.1-.3.3-.5.1-.1.3 0 .4-.1.2-.1.3-.3.4-.5 0-.1 0-.1 0-.2s.1-.2.1-.3c0-.1-.1-.1-.1-.2s0-.2 0-.3c0-.2 0-.4-.1-.5-.4-.7-1.2-.9-2-.8-.2 0-.3.1-.4.2-.2.1-.1.2-.3.2-.1 0-.2.1-.2.2 0 .3 0 .2 0 .3M23.5-33.4c0 .1 0 .1 0 .2-.1.1-.1.1-.2.1-.1.1-.1.3-.1.4-.2.1 0 .2 0 .3 0 0 0 .1 0 .2s0 .3.1.4c.1.2.3.4.4.5.2.1.4.6.6.6.2 0 .4-.1.5-.1.2 0 .4 0 .6-.1.2-.1.1-.3.3-.5.1-.1.3 0 .4-.1.2-.1.3-.3.4-.5 0-.1 0-.1 0-.2s.1-.2.1-.3c0-.1-.1-.1-.1-.2s0-.2 0-.3c0-.2 0-.4-.1-.5-.4-.7-1.2-.9-2-.8-.2 0-.3.1-.4.2-.2.1-.1.2-.3.2-.1 0-.2.1-.2.2 0 .3 0 .2 0 .3M15.8-33.4c0 .1 0 .1 0 .2-.1.1-.1.1-.2.1-.1.1-.1.3-.1.4-.2.1 0 .2 0 .3 0 0 0 .1 0 .2s0 .3.1.4c.1.2.3.4.4.5.2.1.4.6.6.6.2 0 .4-.1.5-.1.2 0 .4 0 .6-.1.2-.1.1-.3.3-.5.1-.1.3 0 .4-.1.2-.1.3-.3.4-.5 0-.1 0-.1 0-.2s.1-.2.1-.3c0-.1-.1-.1-.1-.2s0-.2 0-.3c0-.2 0-.4-.1-.5-.4-.7-1.2-.9-2-.8-.2 0-.3.1-.4.2-.2.1-.1.2-.3.2-.1 0-.2.1-.2.2 0 .3 0 .2 0 .3M8.2-33.4c0 .1 0 .1 0 .2-.1.1-.2.1-.2.1-.1.1-.1.3-.1.4-.2.1 0 .2 0 .3 0 0 0 .1 0 .2s0 .3.1.4c.1.2.3.4.4.5.2.1.4.6.6.6.2 0 .4-.1.5-.1.2 0 .4 0 .6-.1.2-.1.1-.3.3-.5.1-.1.3 0 .4-.1.2-.1.3-.3.4-.5 0-.1 0-.1 0-.2s.1-.2.1-.3c0-.1-.1-.1-.1-.2s0-.2 0-.3c0-.2 0-.4-.1-.5-.4-.7-1.2-.9-2-.8-.2 0-.3.1-.4.2-.2.1-.1.2-.3.2-.1 0-.2.1-.2.2 0 .3 0 .2 0 .3-.1 0-.1 0 0 0M.5-33.4c0 .1 0 .1 0 .2-.1.1-.1.1-.2.1-.1.1-.1.3-.1.4-.2.1 0 .2 0 .3 0 0 0 .1 0 .2s0 .3.1.4c.1.2.3.4.4.5.2.1.4.6.6.6.2 0 .4-.1.5-.1.2 0 .4 0 .6-.1.2-.1.1-.3.3-.5.1-.1.3 0 .4-.1.2-.1.3-.3.4-.5 0-.1 0-.1 0-.2s.1-.2.1-.3c0-.1-.1-.1-.1-.2s0-.2 0-.3c0-.2 0-.4-.1-.5-.4-.7-1.2-.9-2-.8-.2 0-.3.1-.4.2-.2.1-.1.2-.3.2-.1 0-.2.1-.2.2 0 .3 0 .2 0 .3M69.4-25.7c0 .1 0 .1 0 .2-.1.1-.1.1-.2.1-.1.1-.1.3-.1.4-.2.1 0 .2 0 .3 0 0 0 .1 0 .2s0 .3.1.4c.1.2.3.4.4.5.2.1.4.6.6.6.2 0 .4-.1.5-.1.2 0 .4 0 .6-.1.2-.1.1-.3.3-.5.1-.1.3 0 .4-.1.2-.1.3-.3.4-.5 0-.1 0-.1 0-.2s.1-.2.1-.3c0-.1-.1-.1-.1-.2s0-.2 0-.3c0-.2 0-.4-.1-.5-.4-.7-1.2-.9-2-.8-.2 0-.3.1-.4.2-.2.1-.1.2-.3.2-.1 0-.2.1-.2.2 0 .2 0 .2 0 .3M61.8-25.7c0 .1 0 .1 0 .2-.1.1-.1.1-.2.1-.1.1-.1.3-.1.4-.2.1 0 .2 0 .3 0 0 0 .1 0 .2s0 .3.1.4c.1.2.3.4.4.5.2.1.4.6.6.6.2 0 .4-.1.5-.1.2 0 .4 0 .6-.1.2-.1.1-.3.3-.5.1-.1.3 0 .4-.1.2-.1.3-.3.4-.5 0-.1 0-.1 0-.2s.1-.2.1-.3c0-.1-.1-.1-.1-.2s0-.2 0-.3c0-.2 0-.4-.1-.5-.4-.7-1.2-.9-2-.8-.2 0-.3.1-.4.2-.2.1-.1.2-.3.2-.1 0-.2.1-.2.2 0 .2 0 .2 0 .3M54.1-25.7c0 .1 0 .1 0 .2-.1.1-.1.1-.2.1-.1.1-.1.3-.1.4-.2.1 0 .2 0 .3 0 0 0 .1 0 .2s0 .3.1.4c.1.2.3.4.4.5.2.1.4.6.6.6.2 0 .4-.1.5-.1.2 0 .4 0 .6-.1.2-.1.1-.3.3-.5.1-.1.3 0 .4-.1.2-.1.3-.3.4-.5 0-.1 0-.1 0-.2s.1-.2.1-.3c0-.1-.1-.1-.1-.2s0-.2 0-.3c0-.2 0-.4-.1-.5-.4-.7-1.2-.9-2-.8-.2 0-.3.1-.4.2-.2.1-.1.2-.3.2-.1 0-.2.1-.2.2 0 .2 0 .2 0 .3M46.5-25.7c0 .1 0 .1 0 .2-.1.1-.1.1-.2.1-.1.1-.1.3-.1.4-.2.1 0 .2 0 .3 0 0 0 .1 0 .2s0 .3.1.4c.1.2.3.4.4.5.2.1.4.6.6.6.2 0 .4-.1.5-.1.2 0 .4 0 .6-.1.2-.1.1-.3.3-.5.1-.1.3 0 .4-.1.2-.1.3-.3.4-.5 0-.1 0-.1 0-.2s.1-.2.1-.3c0-.1-.1-.1-.1-.2s0-.2 0-.3c0-.2 0-.4-.1-.5-.4-.7-1.2-.9-2-.8-.2 0-.3.1-.4.2-.2.1-.1.2-.3.2-.1 0-.2.1-.2.2 0 .2 0 .2 0 .3M38.8-25.7c0 .1 0 .1 0 .2-.1.1-.1.1-.2.1-.1.1-.1.3-.1.4-.2.1 0 .2 0 .3 0 0 0 .1 0 .2s0 .3.1.4c.1.2.3.4.4.5.2.1.4.6.6.6.2 0 .4-.1.5-.1.2 0 .4 0 .6-.1.2-.1.1-.3.3-.5.1-.1.3 0 .4-.1.2-.1.3-.3.4-.5 0-.1 0-.1 0-.2s.1-.2.1-.3c0-.1-.1-.1-.1-.2s0-.2 0-.3c0-.2 0-.4-.1-.5-.4-.7-1.2-.9-2-.8-.2 0-.3.1-.4.2-.2.1-.1.2-.3.2-.1 0-.2.1-.2.2 0 .2 0 .2 0 .3M31.1-25.7c0 .1 0 .1 0 .2-.1.1-.1.1-.2.1-.1.1-.1.3-.1.4-.2.1 0 .2 0 .3 0 0 0 .1 0 .2s0 .3.1.4c.1.2.3.4.4.5.2.1.4.6.6.6.2 0 .4-.1.5-.1.2 0 .4 0 .6-.1.2-.1.1-.3.3-.5.1-.1.3 0 .4-.1.2-.1.3-.3.4-.5 0-.1 0-.1 0-.2s.1-.2.1-.3c0-.1-.1-.1-.1-.2s0-.2 0-.3c0-.2 0-.4-.1-.5-.4-.7-1.2-.9-2-.8-.2 0-.3.1-.4.2-.2.1-.1.2-.3.2-.1 0-.2.1-.2.2 0 .2 0 .2 0 .3M23.5-25.7c0 .1 0 .1 0 .2-.1.1-.1.1-.2.1-.1.1-.1.3-.1.4-.2.1 0 .2 0 .3 0 0 0 .1 0 .2s0 .3.1.4c.1.2.3.4.4.5.2.1.4.6.6.6.2 0 .4-.1.5-.1.2 0 .4 0 .6-.1.2-.1.1-.3.3-.5.1-.1.3 0 .4-.1.2-.1.3-.3.4-.5 0-.1 0-.1 0-.2s.1-.2.1-.3c0-.1-.1-.1-.1-.2s0-.2 0-.3c0-.2 0-.4-.1-.5-.4-.7-1.2-.9-2-.8-.2 0-.3.1-.4.2-.2.1-.1.2-.3.2-.1 0-.2.1-.2.2 0 .2 0 .2 0 .3M15.8-25.7c0 .1 0 .1 0 .2-.1.1-.1.1-.2.1-.1.1-.1.3-.1.4-.2.1 0 .2 0 .3 0 0 0 .1 0 .2s0 .3.1.4c.1.2.3.4.4.5.2.1.4.6.6.6.2 0 .4-.1.5-.1.2 0 .4 0 .6-.1.2-.1.1-.3.3-.5.1-.1.3 0 .4-.1.2-.1.3-.3.4-.5 0-.1 0-.1 0-.2s.1-.2.1-.3c0-.1-.1-.1-.1-.2s0-.2 0-.3c0-.2 0-.4-.1-.5-.4-.7-1.2-.9-2-.8-.2 0-.3.1-.4.2-.2.1-.1.2-.3.2-.1 0-.2.1-.2.2 0 .2 0 .2 0 .3M8.2-25.7c0 .1 0 .1 0 .2-.1.1-.2 0-.2.1-.1.1-.1.3-.1.4-.2.1 0 .2 0 .3 0 0 0 .1 0 .2s0 .3.1.4c0 .1.2.3.3.5.2.1.4.6.6.6.2 0 .4-.1.5-.1.2 0 .4 0 .6-.1.2-.1.1-.3.3-.5.1-.1.3 0 .4-.1.2-.1.3-.3.4-.5 0-.1 0-.1 0-.2s.1-.2.1-.3c0-.1-.1-.1-.1-.2s0-.2 0-.3c0-.2 0-.4-.1-.5-.4-.7-1.2-.9-2-.8-.2 0-.3.1-.4.2-.2.1-.1.2-.3.2-.1 0-.2.1-.2.2.1.2.1.2.1.3-.1 0-.1 0 0 0M.5-25.7c0 .1 0 .1 0 .2-.1.1-.1.1-.2.1-.1.1-.1.3-.1.4-.2.1 0 .2 0 .3 0 0 0 .1 0 .2s0 .3.1.4c.1.2.3.4.4.5.2.1.3.5.6.6.2 0 .4-.1.5-.1.2 0 .4 0 .6-.1.2-.1.1-.3.3-.5.1-.1.3 0 .4-.1.2-.1.3-.3.4-.5 0-.1 0-.1 0-.2s.1-.2.1-.3c0-.1-.1-.1-.1-.2s0-.2 0-.3c0-.2 0-.4-.1-.5-.4-.7-1.2-.9-2-.8-.2 0-.3.1-.4.2-.2.1-.1.2-.3.2-.1 0-.2.1-.2.2 0 .2 0 .2 0 .3M69.4-18.1c0 .1 0 .1 0 .2-.1.1-.1.1-.2.1-.1.1-.1.3-.1.4-.2.1 0 .2 0 .3 0 0 0 .1 0 .2s0 .3.1.4c.1.2.3.4.4.5.2.1.4.6.6.6.2 0 .4-.1.5-.1.2 0 .4 0 .6-.1.2-.1.1-.3.3-.5.1-.1.3 0 .4-.1.2-.1.3-.3.4-.5 0-.1 0-.1 0-.2s.1-.2.1-.3c0-.1-.1-.1-.1-.2s0-.2 0-.3c0-.2 0-.4-.1-.5-.4-.7-1.2-.9-2-.8-.2 0-.3.1-.4.2-.2.1-.1.2-.3.2-.1 0-.2.1-.2.2 0 .3 0 .2 0 .3 0 .1 0 0 0 0M61.8-18.1c0 .1 0 .1 0 .2-.1.1-.1.1-.2.1-.1.1-.1.3-.1.4-.2.1 0 .2 0 .3 0 0 0 .1 0 .2s0 .3.1.4c.1.2.3.4.4.5.2.1.4.6.6.6.2 0 .4-.1.5-.1.2 0 .4 0 .6-.1.2-.1.1-.3.3-.5.1-.1.3 0 .4-.1.2-.1.3-.3.4-.5 0-.1 0-.1 0-.2s.1-.2.1-.3c0-.1-.1-.1-.1-.2s0-.2 0-.3c0-.2 0-.4-.1-.5-.4-.7-1.2-.9-2-.8-.2 0-.3.1-.4.2-.2.1-.1.2-.3.2-.1 0-.2.1-.2.2 0 .3 0 .2 0 .3 0 .1 0 0 0 0M54.1-18.1c0 .1 0 .1 0 .2-.1.1-.1.1-.2.1-.1.1-.1.3-.1.4-.2.1 0 .2 0 .3 0 0 0 .1 0 .2s0 .3.1.4c.1.2.3.4.4.5.2.1.4.6.6.6.2 0 .4-.1.5-.1.2 0 .4 0 .6-.1.2-.1.1-.3.3-.5.1-.1.3 0 .4-.1.2-.1.3-.3.4-.5 0-.1 0-.1 0-.2s.1-.2.1-.3c0-.1-.1-.1-.1-.2s0-.2 0-.3c0-.2 0-.4-.1-.5-.4-.7-1.2-.9-2-.8-.2 0-.3.1-.4.2-.2.1-.1.2-.3.2-.1 0-.2.1-.2.2 0 .3 0 .2 0 .3 0 .1 0 0 0 0M46.5-18.1c0 .1 0 .1 0 .2-.1.1-.1.1-.2.1-.1.1-.1.3-.1.4-.2.1 0 .2 0 .3 0 0 0 .1 0 .2s0 .3.1.4c.1.2.3.4.4.5.2.1.4.6.6.6.2 0 .4-.1.5-.1.2 0 .4 0 .6-.1.2-.1.1-.3.3-.5.1-.1.3 0 .4-.1.2-.1.3-.3.4-.5 0-.1 0-.1 0-.2s.1-.2.1-.3c0-.1-.1-.1-.1-.2s0-.2 0-.3c0-.2 0-.4-.1-.5-.4-.7-1.2-.9-2-.8-.2 0-.3.1-.4.2-.2.1-.1.2-.3.2-.1 0-.2.1-.2.2 0 .3 0 .2 0 .3 0 .1 0 0 0 0M38.8-18.1c0 .1 0 .1 0 .2-.1.1-.1.1-.2.1-.1.1-.1.3-.1.4-.2.1 0 .2 0 .3 0 0 0 .1 0 .2s0 .3.1.4c.1.2.3.4.4.5.2.1.4.6.6.6.2 0 .4-.1.5-.1.2 0 .4 0 .6-.1.2-.1.1-.3.3-.5.1-.1.3 0 .4-.1.2-.1.3-.3.4-.5 0-.1 0-.1 0-.2s.1-.2.1-.3c0-.1-.1-.1-.1-.2s0-.2 0-.3c0-.2 0-.4-.1-.5-.4-.7-1.2-.9-2-.8-.2 0-.3.1-.4.2-.2.1-.1.2-.3.2-.1 0-.2.1-.2.2 0 .3 0 .2 0 .3 0 .1 0 0 0 0M31.1-18.1c0 .1 0 .1 0 .2-.1.1-.1.1-.2.1-.1.1-.1.3-.1.4-.2.1 0 .2 0 .3 0 0 0 .1 0 .2s0 .3.1.4c.1.2.3.4.4.5.2.1.4.6.6.6.2 0 .4-.1.5-.1.2 0 .4 0 .6-.1.2-.1.1-.3.3-.5.1-.1.3 0 .4-.1.2-.1.3-.3.4-.5 0-.1 0-.1 0-.2s.1-.2.1-.3c0-.1-.1-.1-.1-.2s0-.2 0-.3c0-.2 0-.4-.1-.5-.4-.7-1.2-.9-2-.8-.2 0-.3.1-.4.2-.2.1-.1.2-.3.2-.1 0-.2.1-.2.2 0 .3 0 .2 0 .3 0 .1 0 0 0 0M23.5-18.1c0 .1 0 .1 0 .2-.1.1-.1.1-.2.1-.1.1-.1.3-.1.4-.2.1 0 .2 0 .3 0 0 0 .1 0 .2s0 .3.1.4c.1.2.3.4.4.5.2.1.4.6.6.6.2 0 .4-.1.5-.1.2 0 .4 0 .6-.1.2-.1.1-.3.3-.5.1-.1.3 0 .4-.1.2-.1.3-.3.4-.5 0-.1 0-.1 0-.2s.1-.2.1-.3c0-.1-.1-.1-.1-.2s0-.2 0-.3c0-.2 0-.4-.1-.5-.4-.7-1.2-.9-2-.8-.2 0-.3.1-.4.2-.2.1-.1.2-.3.2-.1 0-.2.1-.2.2 0 .3 0 .2 0 .3 0 .1 0 0 0 0M15.8-18.1c0 .1 0 .1 0 .2-.1.1-.1.1-.2.1-.1.1-.1.3-.1.4-.2.1 0 .2 0 .3 0 0 0 .1 0 .2s0 .3.1.4c.1.2.3.4.4.5.2.1.4.6.6.6.2 0 .4-.1.5-.1.2 0 .4 0 .6-.1.2-.1.1-.3.3-.5.1-.1.3 0 .4-.1.2-.1.3-.3.4-.5 0-.1 0-.1 0-.2s.1-.2.1-.3c0-.1-.1-.1-.1-.2s0-.2 0-.3c0-.2 0-.4-.1-.5-.4-.7-1.2-.9-2-.8-.2 0-.3.1-.4.2-.2.1-.1.2-.3.2-.1 0-.2.1-.2.2 0 .3 0 .2 0 .3 0 .1 0 0 0 0M8.2-18.1c0 .1 0 .1 0 .2-.1.1-.2.1-.2.1-.1.1-.1.3-.1.4-.2.1 0 .2 0 .3 0 0 0 .1 0 .2s0 .3.1.4c0 .2.2.4.3.5.2.1.4.6.6.6.2 0 .4-.1.5-.1.2 0 .4 0 .6-.1.2-.1.1-.3.3-.5.1-.1.3 0 .4-.1.2-.1.3-.3.4-.5 0-.1 0-.1 0-.2s.1-.2.1-.3c0-.1-.1-.1-.1-.2s0-.2 0-.3c0-.2 0-.4-.1-.5-.4-.7-1.2-.9-2-.8-.2 0-.3.1-.4.2-.2.1-.1.2-.3.2-.1 0-.2.1-.2.2.1.3.1.2.1.3-.1.1-.1 0 0 0M.5-18.1c0 .1 0 .1 0 .2-.1.1-.1.1-.2.1-.1.1-.1.3-.1.4-.2.1 0 .2 0 .3 0 0 0 .1 0 .2s0 .3.1.4c.1.2.3.4.4.5.2.1.4.6.6.6.2 0 .4-.1.5-.1.2 0 .4 0 .6-.1.2-.1.1-.3.3-.5.1 0 .3.1.4.1.2-.1.3-.3.4-.5 0-.1 0-.1 0-.2s.1-.2.1-.3c0-.1-.1-.1-.1-.2s0-.2 0-.3c0-.2 0-.4-.1-.5-.4-.7-1.2-.9-2-.8-.2 0-.3.1-.4.2-.2.1-.1.2-.3.2-.1 0-.2.1-.2.2s0 0 0 .1M69.4-10.4c0 .1 0 .1 0 .2-.1.1-.1.1-.2.1-.1.1-.1.3-.1.4-.2.1 0 .2 0 .3 0 0 0 .1 0 .2s0 .3.1.4c.1.2.3.4.4.5.2.1.4.6.6.6.2 0 .4-.1.5-.1.2 0 .4 0 .6-.1.2-.1.1-.3.3-.5.1-.1.3 0 .4-.1.2-.1.3-.3.4-.5 0-.1 0-.1 0-.2s.1-.2.1-.3c0-.1-.1-.1-.1-.2s0-.2 0-.3c0-.2 0-.4-.1-.5-.4-.7-1.2-.9-2-.8-.2 0-.3.1-.4.2-.2.1-.1.2-.3.2-.1 0-.2.1-.2.2 0 .2 0 .2 0 .3M61.8-10.4c0 .1 0 .1 0 .2-.1.1-.1.1-.2.1-.1.1-.1.3-.1.4-.2.1 0 .2 0 .3 0 0 0 .1 0 .2s0 .3.1.4c.1.2.3.4.4.5.2.1.4.6.6.6.2 0 .4-.1.5-.1.2 0 .4 0 .6-.1.2-.1.1-.3.3-.4.1-.1.3 0 .4-.1.2-.1.3-.3.4-.5 0-.1 0-.1 0-.2s.1-.2.1-.3c0-.1-.1-.1-.1-.2s0-.2 0-.3c0-.2 0-.4-.1-.5-.4-.7-1.2-.9-2-.8-.2 0-.3.1-.4.2-.2.1-.1.2-.3.2-.1 0-.2.1-.2.2s0 .1 0 .2M54.1-10.4c0 .1 0 .1 0 .2-.1.1-.1.1-.2.1-.1.1-.1.3-.1.4-.2.1 0 .2 0 .3 0 0 0 .1 0 .2s0 .3.1.4c.1.2.3.4.4.5.2.1.4.6.6.6.2 0 .4-.1.5-.1.2 0 .4 0 .6-.1.2-.1.1-.3.3-.5.1-.1.3 0 .4-.1.2-.1.3-.3.4-.5 0-.1 0-.1 0-.2s.1-.2.1-.3c0-.1-.1-.1-.1-.2s0-.2 0-.3c0-.2 0-.4-.1-.5-.4-.7-1.2-.9-2-.8-.2 0-.3.1-.4.2-.2.1-.1.2-.3.2-.1 0-.2.1-.2.2 0 .2 0 .2 0 .3M46.5-10.4c0 .1 0 .1 0 .2-.1.1-.1.1-.2.1-.1.1-.1.3-.1.4-.2.1 0 .2 0 .3 0 0 0 .1 0 .2s0 .3.1.4c.1.2.3.4.4.5.2.1.4.6.6.6.2 0 .4-.1.5-.1.2 0 .4 0 .6-.1.2-.1.1-.3.3-.5.1-.1.3 0 .4-.1.2-.1.3-.3.4-.5 0-.1 0-.1 0-.2s.1-.2.1-.3c0-.1-.1-.1-.1-.2s0-.2 0-.3c0-.2 0-.4-.1-.5-.4-.7-1.2-.9-2-.8-.2 0-.3.1-.4.2-.2.1-.1.2-.3.2-.1 0-.2.1-.2.2 0 .2 0 .2 0 .3M38.8-10.4c0 .1 0 .1 0 .2-.1.1-.1.1-.2.1-.1.1-.1.3-.1.4-.2.1 0 .2 0 .3 0 0 0 .1 0 .2s0 .3.1.4c.1.2.3.4.4.5.2.1.4.6.6.6.2 0 .4-.1.5-.1.2 0 .4 0 .6-.1.2-.1.1-.3.3-.4.1-.1.3 0 .4-.1.2-.1.3-.3.4-.5 0-.1 0-.1 0-.2s.1-.2.1-.3c0-.1-.1-.1-.1-.2s0-.2 0-.3c0-.2 0-.4-.1-.5-.4-.7-1.2-.9-2-.8-.2 0-.3.1-.4.2-.2.1-.1.2-.3.2-.1 0-.2.1-.2.2s0 .1 0 .2M31.1-10.4c0 .1 0 .1 0 .2-.1.1-.1.1-.2.1-.1.1-.1.3-.1.4-.2.1 0 .2 0 .3 0 0 0 .1 0 .2s0 .3.1.4c.1.2.3.4.4.5.2.1.4.6.6.6.2 0 .4-.1.5-.1.2 0 .4 0 .6-.1.2-.1.1-.3.3-.5.1-.1.3 0 .4-.1.2-.1.3-.3.4-.5 0-.1 0-.1 0-.2s.1-.2.1-.3c0-.1-.1-.1-.1-.2s0-.2 0-.3c0-.2 0-.4-.1-.5-.4-.7-1.2-.9-2-.8-.2 0-.3.1-.4.2-.2.1-.1.2-.3.2-.1 0-.2.1-.2.2 0 .2 0 .2 0 .3M23.5-10.4c0 .1 0 .1 0 .2-.1.1-.1.1-.2.1-.1.1-.1.3-.1.4-.2.1 0 .2 0 .3 0 0 0 .1 0 .2s0 .3.1.4c.1.2.3.4.4.5.2.1.4.6.6.6.2 0 .4-.1.5-.1.2 0 .4 0 .6-.1.2-.1.1-.3.3-.5.1-.1.3 0 .4-.1.2-.1.3-.3.4-.5 0-.1 0-.1 0-.2s.1-.2.1-.3c0-.1-.1-.1-.1-.2s0-.2 0-.3c0-.2 0-.4-.1-.5-.4-.7-1.2-.9-2-.8-.2 0-.3.1-.4.2-.2.1-.1.2-.3.2-.1 0-.2.1-.2.2 0 .2 0 .2 0 .3M15.8-10.4c0 .1 0 .1 0 .2-.1.1-.1.1-.2.1-.1.1-.1.3-.1.4-.2.1 0 .2 0 .3 0 0 0 .1 0 .2s0 .3.1.4c.1.2.3.4.4.5.2.1.4.6.6.6.2 0 .4-.1.5-.1.2 0 .4 0 .6-.1.2-.1.1-.3.3-.4.1-.1.3 0 .4-.1.2-.1.3-.3.4-.5 0-.1 0-.1 0-.2s.1-.2.1-.3c0-.1-.1-.1-.1-.2s0-.2 0-.3c0-.2 0-.4-.1-.5-.4-.7-1.2-.9-2-.8-.2 0-.3.1-.4.2-.2.1-.1.2-.3.2-.1 0-.2.1-.2.2s0 .1 0 .2M8.2-10.4c0 .1 0 .1 0 .2-.1.1-.2 0-.2.1-.1.1-.1.3-.1.3-.2.1 0 .2 0 .3 0 0 0 .1 0 .2s0 .3.1.4c0 .2.2.4.3.6.2.1.4.6.6.6.2 0 .4-.1.5-.1.2 0 .4 0 .6-.1.2-.1.1-.3.3-.5.1-.1.3 0 .4-.1.2-.1.3-.3.4-.5 0-.1 0-.1 0-.2s.1-.2.1-.3c0-.1-.1-.1-.1-.2s0-.2 0-.3c0-.2 0-.4-.1-.5-.4-.7-1.2-.9-2-.8-.2 0-.3.1-.4.2-.2.1-.1.2-.3.2-.1 0-.2.1-.2.2.1.2.1.2.1.3-.1 0-.1 0 0 0M.5-10.4c0 .1 0 .1 0 .2-.1.1-.1.1-.2.1 0 .1-.1.3-.1.3-.2.1 0 .2 0 .3 0 0 0 .1 0 .2s0 .3.1.4c.1.2.3.4.4.5.2.2.3.6.6.7.2 0 .4-.1.5-.1.2 0 .4 0 .6-.1.2-.1.1-.3.3-.4.1-.1.3 0 .4-.1.2-.1.3-.3.4-.5 0-.1 0-.1 0-.2s.1-.2.1-.3c0-.1-.1-.1-.1-.2s0-.2 0-.3c0-.2 0-.4-.1-.5-.4-.7-1.2-.9-2-.8-.2 0-.3.1-.4.2-.2.1-.1.2-.3.2-.1 0-.2.1-.2.2s0 .1 0 .2"/></g><g fill="#fff"><path d="M69.4-2.8c0 .1 0 .1 0 .2-.1.1-.1.1-.2.1-.1.1-.1.3-.1.4-.2.1 0 .2 0 .3 0 0 0 .1 0 .2s0 .3.1.4c.1.2.3.4.4.5.2.2.4.6.6.7.2 0 .4-.1.5-.1.2 0 .4 0 .6-.1.2-.1.1-.3.3-.5.1-.1.3 0 .4-.1.2-.1.3-.3.4-.5 0-.1 0-.1 0-.2s.1-.2.1-.3c0-.1-.1-.1-.1-.2s0-.2 0-.3c0-.2 0-.4-.1-.5-.4-.7-1.2-.9-2-.8-.2 0-.3.1-.4.2-.2.1-.1.2-.3.2-.1 0-.2.1-.2.2 0 .2 0 .1 0 .2M61.8-2.8c0 .1 0 .1 0 .2-.1.1-.1.1-.2.1-.1.1-.1.3-.1.4-.2.1 0 .2 0 .3 0 0 0 .1 0 .2s0 .3.1.4c0 .2.2.4.4.5.2.1.4.6.6.6.2 0 .4-.1.5-.1.2 0 .4 0 .6-.1.2-.1.1-.3.3-.5.1-.1.3 0 .4-.1.2-.1.3-.3.4-.5 0-.1 0-.1 0-.2s.1-.2.1-.3c0-.1-.1-.1-.1-.2s0-.2 0-.3c0-.2 0-.4-.1-.5-.4-.7-1.2-.9-2-.8-.2 0-.3.1-.4.2-.2.1-.1.2-.3.2-.1 0-.2.1-.2.2 0 .3 0 .2 0 .3 0 .1 0 0 0 0M54.1-2.8c0 .1 0 .1 0 .2-.1.1-.1.1-.2.1-.1.1-.1.3-.1.4-.2.1 0 .2 0 .3 0 0 0 .1 0 .2s0 .3.1.4c.1.2.2.4.4.5.2.1.4.6.6.6.2 0 .4-.1.5-.1.2 0 .4 0 .6-.1.2-.1.1-.3.3-.5.1-.1.3 0 .4-.1.2.1.3-.1.4-.3 0-.1 0-.1 0-.2s.1-.2.1-.3c0-.1-.1-.1-.1-.2s0-.2 0-.3c0-.2 0-.4-.1-.5-.4-.7-1.2-.9-2-.8-.2 0-.3.1-.4.2-.2.1-.1.2-.3.2-.1 0-.2.1-.2.2s0 0 0 .1M46.5-2.8c0 .1 0 .1 0 .2-.1.1-.1.1-.2.1-.1.1-.1.3-.1.4-.2.1 0 .2 0 .3 0 0 0 .1 0 .2s0 .3.1.4c.1.2.3.4.4.5.1.2.3.6.5.7.2 0 .4-.1.5-.1.2 0 .4 0 .6-.1.2-.1.1-.3.3-.5.1-.1.3 0 .4-.1.2-.1.3-.3.4-.5 0-.1 0-.1 0-.2s.1-.2.1-.3c0-.1-.1-.1-.1-.2s0-.2 0-.3c0-.2 0-.4-.1-.5-.4-.7-1.2-.9-2-.8-.2 0-.3.1-.4.2-.2.1-.1.2-.3.2-.1 0-.2.1-.2.2.1.2.1.1.1.2M38.8-2.8c0 .1 0 .1 0 .2-.1.1-.1.1-.2.1-.1.1-.1.3-.1.4-.2.1 0 .2 0 .3 0 0 0 .1 0 .2s0 .3.1.4c0 .2.2.4.4.5.2.1.4.6.6.6.2 0 .4-.1.5-.1.2 0 .4 0 .6-.1.2-.1.1-.3.3-.5.1-.1.3 0 .4-.1.2-.1.3-.3.4-.5 0-.1 0-.1 0-.2s.1-.2.1-.3c0-.1-.1-.1-.1-.2s0-.2 0-.3c0-.2 0-.4-.1-.5-.4-.7-1.2-.9-2-.8-.2 0-.3.1-.4.2-.2.1-.1.2-.3.2-.1 0-.2.1-.2.2 0 .3 0 .2 0 .3 0 .1 0 0 0 0M31.1-2.8c0 .1 0 .1 0 .2-.1.1-.1.1-.2.1-.1.1-.1.3-.1.4-.2.1 0 .2 0 .3 0 0 0 .1 0 .2s0 .3.1.4c.1.2.2.4.4.5.2.1.4.6.6.6.2 0 .4-.1.5-.1.2 0 .4 0 .6-.1.2-.1.1-.3.3-.5.1-.1.3 0 .4-.1.2-.1.3-.3.4-.5 0-.1 0-.1 0-.2s.1-.2.1-.3c0-.1-.1-.1-.1-.2s0-.2 0-.3c0-.2 0-.4-.1-.5-.4-.7-1.2-.9-2-.8-.2 0-.3.1-.4.2-.2.1-.1.2-.3.2-.1 0-.2.1-.2.2 0 .3 0 .2 0 .3 0 .1 0 0 0 0M23.5-2.8c0 .1 0 .1 0 .2-.1.1-.1.1-.2.1-.1.1-.1.3-.1.4-.2.1 0 .2 0 .3 0 0 0 .1 0 .2s0 .3.1.4c.1.2.3.4.4.5.1.2.3.6.6.7.2 0 .4-.1.5-.1.2 0 .4 0 .6-.1.2-.1.1-.3.3-.5.1-.1.3 0 .4-.1.2-.1.3-.3.4-.5 0-.1 0-.1 0-.2s.1-.2.1-.3c0-.1-.1-.1-.1-.2s0-.2 0-.3c0-.2 0-.4-.1-.5-.4-.7-1.2-.9-2-.8-.2 0-.3.1-.4.2-.2.1-.1.2-.3.2-.1 0-.2.1-.2.2 0 .2 0 .1 0 .2M15.8-2.8c0 .1 0 .1 0 .2-.1.1-.1.1-.2.1-.1.1-.1.3-.1.4-.2.1 0 .2 0 .3 0 0 0 .1 0 .2s0 .3.1.4c.1.2.2.4.4.5.2.1.4.6.6.6.2 0 .4-.1.5-.1.2 0 .4 0 .6-.1.2-.1.1-.3.3-.5.1-.1.3 0 .4-.1.2-.1.3-.3.4-.5 0-.1 0-.1 0-.2s.1-.2.1-.3c0-.1-.1-.1-.1-.2s0-.2 0-.3c0-.2 0-.4-.1-.5-.4-.7-1.2-.9-2-.8-.2 0-.3.1-.4.2-.2.1-.1.2-.3.2-.1 0-.2.1-.2.2 0 .3 0 .2 0 .3 0 .1 0 0 0 0M8.2-2.8c0 .1 0 .1 0 .2-.1.1-.2.1-.2.1-.1.1-.1.3-.1.4-.2.1 0 .2 0 .3 0 0 0 .1 0 .2s0 .3.1.4c0 .2.2.4.3.5.2.2.4.6.6.7.2 0 .4-.1.5-.1.2 0 .4 0 .6-.1.2-.1.1-.3.3-.5.1-.1.3 0 .4-.1.2-.1.3-.3.4-.5 0-.1 0-.1 0-.2s.1-.2.1-.3c0-.1-.1-.1-.1-.2s0-.2 0-.3c0-.2 0-.4-.1-.5-.4-.7-1.2-.9-2-.8 0 .1-.2.2-.3.2-.2.1-.1.2-.3.3-.1 0-.2.1-.2.2s0 0 0 .1c-.1.1-.1 0 0 0M.5-2.8c0 .1 0 .1 0 .2-.1.1-.1.1-.2.1 0 .1-.1.3-.1.4-.2.1 0 .2 0 .3 0 0 0 .1 0 .2s0 .3.1.4c0 .2.2.4.4.5.2.2.3.6.6.7.2 0 .4-.1.5-.1.2 0 .4 0 .6-.1.2-.1.1-.3.3-.5.1-.1.3 0 .4-.1.2 0 .3-.2.4-.4 0-.1 0-.1 0-.2s.1-.2.1-.3c0-.1-.1-.1-.1-.2s0-.2 0-.3c0-.2 0-.4-.1-.5-.4-.7-1.2-.9-2-.8-.1 0-.2.1-.4.1-.1.1-.1.2-.3.3-.1 0-.2.1-.2.2s0 0 0 .1"/></g></pattern><path fill="#fff" stroke="#0058A0" stroke-width="5.003" d="M413.5 251.3c0 5.9-4.7 10.6-10.6 10.6H13.1c-5.9 0-10.6-4.8-10.6-10.6V13.1c0-5.9 4.7-10.6 10.6-10.6h389.8c5.9 0 10.6 4.8 10.6 10.6v238.2"/><path fill="#0058A0" d="M150.1 187l19.1-118.4h30.6L180.7 187h-30.6M291.5 71.6c-6.1-2.4-15.5-5-27.4-5-30.2 0-51.5 16.1-51.6 39.1-.2 17 15.2 26.5 26.8 32.2 11.9 5.8 15.9 9.5 15.9 14.7-.1 7.9-9.5 11.6-18.3 11.6-12.2 0-18.7-1.8-28.8-6.2l-3.9-1.9-4.3 26.5c7.1 3.3 20.3 6.2 34 6.3 32.1 0 53-15.9 53.2-40.4.1-13.5-8-23.7-25.7-32.2-10.7-5.5-17.2-9.1-17.2-14.7 0-4.9 5.5-10.2 17.5-10.2 10-.2 17.2 2.1 22.9 4.5l2.7 1.4 4.2-25.7"/><path fill="#0058A0" d="M369.9 68.8h-23.6c-7.3 0-12.8 2.1-16 9.8L284.9 187H317s5.2-14.6 6.4-17.8c3.5 0 34.7.1 39.1.1.9 4.1 3.7 17.7 3.7 17.7h28.4L369.9 68.8M332.2 145c2.5-6.8 12.2-33.1 12.2-33.1-.2.3 2.5-6.9 4.1-11.3l2.1 10.2s5.9 28.2 7.1 34.2c-4.9 0-19.6 0-25.5 0zM124.5 68.7l-29.9 80.7-3.2-16.4c-5.6-18.9-23-39.3-42.4-49.6l27.4 103.5h32.3l48.1-118.1h-32.3"/><path fill="#FAA61A" d="M66.8 68.7H17.5l-.4 2.4c38.3 9.8 63.7 33.5 74.2 61.9L80.7 78.6c-1.9-7.4-7.3-9.7-13.9-9.9z"/></svg>