<svg xmlns="http://www.w3.org/2000/svg" viewBox="0 0 218.5 136.8" enable-background="new 0 0 218.5 136.8"><path fill="#0058A0" stroke="#0058A0" stroke-width=".5" d="M.2.3h218v136.3H.2z"/><g fill="#fff"><path d="M101.1 113.5h-6.6l-.8 5.3h5.1v2.2h-5.4l-1 6.2h6.8l-.3 2.1h-9.2l2.8-17.9h9l-.4 2.1zM102.4 129.3l2.8-17.9h2.4l-2.5 15.8h5.9v2.1h-8.6zM125.8 113.5h-6.6l-.8 5.3h5.1v2.2h-5.4l-1 6.2h6.8l-.3 2.1h-9.2l2.8-17.9h9l-.4 2.1zM140.7 115.1c-.6-.6-1.2-1-1.9-1.4-.7-.4-1.5-.5-2.4-.5-1 0-1.9.2-2.7.7-.8.5-1.5 1.1-2 1.9-.6.8-1 1.7-1.3 2.7-.3 1-.5 2.1-.5 3.2 0 1.9.4 3.4 1.3 4.3.8.9 2 1.4 3.4 1.4.8 0 1.6-.1 2.4-.4.8-.3 1.6-.7 2.3-1.2v2.3c-.7.5-1.5.8-2.3 1.1-.9.3-1.7.4-2.5.4-1.1 0-2-.2-2.9-.5-.9-.3-1.6-.8-2.2-1.5-.6-.7-1.1-1.4-1.4-2.4-.3-.9-.5-2-.5-3.2 0-1.4.2-2.8.7-4.1.4-1.3 1-2.5 1.8-3.5s1.8-1.8 2.9-2.4c1.1-.6 2.3-.9 3.7-.9 1.1 0 2.1.2 2.9.5.8.3 1.5.7 2 1.2l-.8 2.3zM151.9 113.5l-2.5 15.8H147l2.5-15.8h-5.3l.3-2.1h12.8v2.1h-5.4zM170.6 115.8c0 1.5-.4 2.7-1.3 3.6-.8.9-2 1.6-3.6 1.9l4.2 7.6-2.5.5-4.3-7.9h-1.4l-1.2 7.7h-2.4l2.8-17.9h3.6c1.8 0 3.3.4 4.4 1.1 1.1.7 1.7 1.9 1.7 3.4zm-2.5.3c0-.9-.3-1.5-.9-2-.6-.5-1.4-.7-2.6-.7H163l-.9 6.1h1.7c1.5 0 2.6-.3 3.3-.9.7-.6 1-1.4 1-2.5zM189.1 118.7c0 1.6-.2 3-.7 4.3-.5 1.3-1.1 2.5-1.9 3.5-.8 1-1.7 1.7-2.8 2.3-1.1.5-2.2.8-3.5.8-1.1 0-2.1-.2-3-.6-.9-.4-1.6-.9-2.1-1.6-.6-.7-1-1.5-1.3-2.4-.3-.9-.4-2-.4-3.1 0-1.6.2-3 .7-4.3.5-1.3 1.1-2.5 1.9-3.5.8-1 1.7-1.7 2.8-2.3 1.1-.5 2.2-.8 3.5-.8 1.1 0 2.1.2 3 .6.9.4 1.6.9 2.1 1.6.6.7 1 1.5 1.3 2.4.3 1 .4 2 .4 3.1zm-2.4.1c0-1.8-.4-3.2-1.2-4.3-.8-1-1.9-1.5-3.4-1.5-.9 0-1.7.2-2.5.7-.8.4-1.4 1.1-2 1.8-.5.8-1 1.7-1.3 2.8-.3 1.1-.5 2.2-.5 3.5 0 1.8.4 3.2 1.2 4.3.8 1 1.9 1.5 3.4 1.5.9 0 1.8-.2 2.5-.7.8-.5 1.4-1.1 2-1.8.6-.8 1-1.7 1.3-2.8.3-1.1.5-2.2.5-3.5zM204.6 129.3h-1.5l-7-14.5-2.3 14.5h-2.2l2.8-17.9h2.4l6.4 13.2 2.1-13.2h2.2l-2.9 17.9z"/></g><path fill="#fff" d="M10.2.6c0 22.6 0 76.5 0 94.6.1 1.2.9 9.7 10.8 9.7 61.3 0 135.9 0 196.9 0V.6H10.2z"/><path fill="#0058A0" d="M69.5 22.2L54.3 63.1l-1.6-8.3c-3.7-9.9-10.8-19-21.5-25.1l13.9 52.4h16.4l24.4-59.9H69.5M82.5 82.1l9.7-60h15.5l-9.7 60H82.5M154.2 23.6c-3.1-1.2-7.9-2.5-13.9-2.5-15.3 0-26.1 8.1-26.2 19.8-.1 8.6 7.7 13.4 13.6 16.3 6 2.9 8.1 4.8 8 7.4-.1 4-4.8 5.8-9.3 5.8-6.2 0-9.5-.9-14.6-3.1l-2-.9-2.2 13.4c3.6 1.7 10.3 3.1 17.3 3.2 16.3 0 26.8-8.1 27-20.5.1-6.8-4.1-12-13-16.3-5.4-2.8-8.7-4.6-8.7-7.4 0-2.5 2.8-5.2 8.9-5.2 5.1-.1 8.7 1.1 11.6 2.3l1.4.7 2.1-13"/><path fill="#0058A0" d="M193.9 22.2h-12c-3.7 0-6.5 1.1-8.1 5l-23 55h16.3s2.7-7.4 3.3-9c1.8 0 17.6 0 19.8 0 .5 2.1 1.9 9 1.9 9h14.4l-12.6-60m-19.1 38.6C176.1 57.4 181 44 181 44c-.1.2 1.3-3.5 2.1-5.7l1 5.2s3 14.3 3.6 17.3c-2.4 0-9.9 0-12.9 0z"/><path fill="#FAA61A" d="M40.3 22.1h-25l-.1 1c19.4 5 32.2 17.2 37.6 31.6l-5.4-27.6c-1-3.7-3.8-4.8-7.1-5z"/></svg>